<svg xmlns="http://www.w3.org/2000/svg" xmlns:xlink="http://www.w3.org/1999/xlink" width="500" zoomAndPan="magnify" viewBox="0 0 375 374.999991" height="500" preserveAspectRatio="xMidYMid meet" version="1.0"><defs><g/><clipPath id="6a142ffadf"><path d="M 242 26 L 278 26 L 278 89 L 242 89 Z M 242 26 " clip-rule="nonzero"/></clipPath><clipPath id="6dd121c130"><path d="M 239.949219 0 L 326.113281 19.027344 L 305.964844 110.257812 L 219.804688 91.230469 Z M 239.949219 0 " clip-rule="nonzero"/></clipPath><clipPath id="96d0f44fec"><path d="M 239.949219 0 L 326.113281 19.027344 L 305.964844 110.257812 L 219.804688 91.230469 Z M 239.949219 0 " clip-rule="nonzero"/></clipPath><clipPath id="d2e17d4500"><path d="M 239.949219 0 L 326.113281 19.027344 L 305.964844 110.257812 L 219.804688 91.230469 Z M 239.949219 0 " clip-rule="nonzero"/></clipPath><clipPath id="e50ec05ae8"><path d="M 268 29 L 303 29 L 303 89 L 268 89 Z M 268 29 " clip-rule="nonzero"/></clipPath><clipPath id="8c07a7d80d"><path d="M 239.949219 0 L 326.113281 19.027344 L 305.964844 110.257812 L 219.804688 91.230469 Z M 239.949219 0 " clip-rule="nonzero"/></clipPath><clipPath id="d313747a3b"><path d="M 239.949219 0 L 326.113281 19.027344 L 305.964844 110.257812 L 219.804688 91.230469 Z M 239.949219 0 " clip-rule="nonzero"/></clipPath><clipPath id="ce41923099"><path d="M 239.949219 0 L 326.113281 19.027344 L 305.964844 110.257812 L 219.804688 91.230469 Z M 239.949219 0 " clip-rule="nonzero"/></clipPath><clipPath id="cfd91c21cf"><path d="M 268 48 L 288 48 L 288 89 L 268 89 Z M 268 48 " clip-rule="nonzero"/></clipPath><clipPath id="436ed9725e"><path d="M 239.949219 0 L 326.113281 19.027344 L 305.964844 110.257812 L 219.804688 91.230469 Z M 239.949219 0 " clip-rule="nonzero"/></clipPath><clipPath id="fe3aa46160"><path d="M 239.949219 0 L 326.113281 19.027344 L 305.964844 110.257812 L 219.804688 91.230469 Z M 239.949219 0 " clip-rule="nonzero"/></clipPath><clipPath id="f88dfffac3"><path d="M 239.949219 0 L 326.113281 19.027344 L 305.964844 110.257812 L 219.804688 91.230469 Z M 239.949219 0 " clip-rule="nonzero"/></clipPath><clipPath id="c8a61e2ced"><path d="M 266 90 L 279 90 L 279 97 L 266 97 Z M 266 90 " clip-rule="nonzero"/></clipPath><clipPath id="41cc4ba07e"><path d="M 239.949219 0 L 326.113281 19.027344 L 305.964844 110.257812 L 219.804688 91.230469 Z M 239.949219 0 " clip-rule="nonzero"/></clipPath><clipPath id="4ac48d9a8d"><path d="M 239.949219 0 L 326.113281 19.027344 L 305.964844 110.257812 L 219.804688 91.230469 Z M 239.949219 0 " clip-rule="nonzero"/></clipPath><clipPath id="d70dd53aa8"><path d="M 239.949219 0 L 326.113281 19.027344 L 305.964844 110.257812 L 219.804688 91.230469 Z M 239.949219 0 " clip-rule="nonzero"/></clipPath><clipPath id="8846aed96e"><path d="M 266 92 L 278 92 L 278 97 L 266 97 Z M 266 92 " clip-rule="nonzero"/></clipPath><clipPath id="5b02107aae"><path d="M 239.949219 0 L 326.113281 19.027344 L 305.964844 110.257812 L 219.804688 91.230469 Z M 239.949219 0 " clip-rule="nonzero"/></clipPath><clipPath id="4e29b9d31f"><path d="M 239.949219 0 L 326.113281 19.027344 L 305.964844 110.257812 L 219.804688 91.230469 Z M 239.949219 0 " clip-rule="nonzero"/></clipPath><clipPath id="6887c2a90d"><path d="M 239.949219 0 L 326.113281 19.027344 L 305.964844 110.257812 L 219.804688 91.230469 Z M 239.949219 0 " clip-rule="nonzero"/></clipPath><clipPath id="cd6650f591"><path d="M 265 94 L 277 94 L 277 101 L 265 101 Z M 265 94 " clip-rule="nonzero"/></clipPath><clipPath id="aa29599dfd"><path d="M 239.949219 0 L 326.113281 19.027344 L 305.964844 110.257812 L 219.804688 91.230469 Z M 239.949219 0 " clip-rule="nonzero"/></clipPath><clipPath id="48be9c60f7"><path d="M 239.949219 0 L 326.113281 19.027344 L 305.964844 110.257812 L 219.804688 91.230469 Z M 239.949219 0 " clip-rule="nonzero"/></clipPath><clipPath id="be68f5c3ff"><path d="M 239.949219 0 L 326.113281 19.027344 L 305.964844 110.257812 L 219.804688 91.230469 Z M 239.949219 0 " clip-rule="nonzero"/></clipPath><clipPath id="0db28f86d6"><path d="M 265 96 L 277 96 L 277 101 L 265 101 Z M 265 96 " clip-rule="nonzero"/></clipPath><clipPath id="b410689cb7"><path d="M 239.949219 0 L 326.113281 19.027344 L 305.964844 110.257812 L 219.804688 91.230469 Z M 239.949219 0 " clip-rule="nonzero"/></clipPath><clipPath id="ff7ac37e6e"><path d="M 239.949219 0 L 326.113281 19.027344 L 305.964844 110.257812 L 219.804688 91.230469 Z M 239.949219 0 " clip-rule="nonzero"/></clipPath><clipPath id="bd0bd5d002"><path d="M 239.949219 0 L 326.113281 19.027344 L 305.964844 110.257812 L 219.804688 91.230469 Z M 239.949219 0 " clip-rule="nonzero"/></clipPath><clipPath id="987087da59"><path d="M 267 86 L 281 86 L 281 93 L 267 93 Z M 267 86 " clip-rule="nonzero"/></clipPath><clipPath id="c312d53463"><path d="M 239.949219 0 L 326.113281 19.027344 L 305.964844 110.257812 L 219.804688 91.230469 Z M 239.949219 0 " clip-rule="nonzero"/></clipPath><clipPath id="9acb55f393"><path d="M 239.949219 0 L 326.113281 19.027344 L 305.964844 110.257812 L 219.804688 91.230469 Z M 239.949219 0 " clip-rule="nonzero"/></clipPath><clipPath id="ce1cd4b321"><path d="M 239.949219 0 L 326.113281 19.027344 L 305.964844 110.257812 L 219.804688 91.230469 Z M 239.949219 0 " clip-rule="nonzero"/></clipPath><clipPath id="25c322cb19"><path d="M 267 88 L 280 88 L 280 93 L 267 93 Z M 267 88 " clip-rule="nonzero"/></clipPath><clipPath id="13859ae41a"><path d="M 239.949219 0 L 326.113281 19.027344 L 305.964844 110.257812 L 219.804688 91.230469 Z M 239.949219 0 " clip-rule="nonzero"/></clipPath><clipPath id="000c4aa1ea"><path d="M 239.949219 0 L 326.113281 19.027344 L 305.964844 110.257812 L 219.804688 91.230469 Z M 239.949219 0 " clip-rule="nonzero"/></clipPath><clipPath id="91a0562d2a"><path d="M 239.949219 0 L 326.113281 19.027344 L 305.964844 110.257812 L 219.804688 91.230469 Z M 239.949219 0 " clip-rule="nonzero"/></clipPath><clipPath id="93878e062f"><path d="M 265 98 L 275 98 L 275 103 L 265 103 Z M 265 98 " clip-rule="nonzero"/></clipPath><clipPath id="cc3d164afd"><path d="M 239.949219 0 L 326.113281 19.027344 L 305.964844 110.257812 L 219.804688 91.230469 Z M 239.949219 0 " clip-rule="nonzero"/></clipPath><clipPath id="8ecb30a92d"><path d="M 239.949219 0 L 326.113281 19.027344 L 305.964844 110.257812 L 219.804688 91.230469 Z M 239.949219 0 " clip-rule="nonzero"/></clipPath><clipPath id="583459457d"><path d="M 239.949219 0 L 326.113281 19.027344 L 305.964844 110.257812 L 219.804688 91.230469 Z M 239.949219 0 " clip-rule="nonzero"/></clipPath><clipPath id="01c7549a04"><path d="M 265.804688 98.066406 L 274.53125 99.996094 L 273.832031 103.164062 L 265.101562 101.234375 Z M 265.804688 98.066406 " clip-rule="nonzero"/></clipPath><clipPath id="e2a557290a"><path d="M 253 87 L 265 87 L 265 94 L 253 94 Z M 253 87 " clip-rule="nonzero"/></clipPath><clipPath id="7848ed819c"><path d="M 239.949219 0 L 326.113281 19.027344 L 305.964844 110.257812 L 219.804688 91.230469 Z M 239.949219 0 " clip-rule="nonzero"/></clipPath><clipPath id="471f1bd7ac"><path d="M 239.949219 0 L 326.113281 19.027344 L 305.964844 110.257812 L 219.804688 91.230469 Z M 239.949219 0 " clip-rule="nonzero"/></clipPath><clipPath id="017ceb0c14"><path d="M 239.949219 0 L 326.113281 19.027344 L 305.964844 110.257812 L 219.804688 91.230469 Z M 239.949219 0 " clip-rule="nonzero"/></clipPath><clipPath id="902f60a6c7"><path d="M 253 89 L 265 89 L 265 94 L 253 94 Z M 253 89 " clip-rule="nonzero"/></clipPath><clipPath id="a0befc3ce4"><path d="M 239.949219 0 L 326.113281 19.027344 L 305.964844 110.257812 L 219.804688 91.230469 Z M 239.949219 0 " clip-rule="nonzero"/></clipPath><clipPath id="53b75c7abd"><path d="M 239.949219 0 L 326.113281 19.027344 L 305.964844 110.257812 L 219.804688 91.230469 Z M 239.949219 0 " clip-rule="nonzero"/></clipPath><clipPath id="27b9101d2e"><path d="M 239.949219 0 L 326.113281 19.027344 L 305.964844 110.257812 L 219.804688 91.230469 Z M 239.949219 0 " clip-rule="nonzero"/></clipPath><clipPath id="b2898ba766"><path d="M 253 91 L 264 91 L 264 98 L 253 98 Z M 253 91 " clip-rule="nonzero"/></clipPath><clipPath id="620f1673ae"><path d="M 239.949219 0 L 326.113281 19.027344 L 305.964844 110.257812 L 219.804688 91.230469 Z M 239.949219 0 " clip-rule="nonzero"/></clipPath><clipPath id="bd6093afd0"><path d="M 239.949219 0 L 326.113281 19.027344 L 305.964844 110.257812 L 219.804688 91.230469 Z M 239.949219 0 " clip-rule="nonzero"/></clipPath><clipPath id="432802b2e8"><path d="M 239.949219 0 L 326.113281 19.027344 L 305.964844 110.257812 L 219.804688 91.230469 Z M 239.949219 0 " clip-rule="nonzero"/></clipPath><clipPath id="a61d59e13a"><path d="M 253 93 L 264 93 L 264 98 L 253 98 Z M 253 93 " clip-rule="nonzero"/></clipPath><clipPath id="921bf9a374"><path d="M 239.949219 0 L 326.113281 19.027344 L 305.964844 110.257812 L 219.804688 91.230469 Z M 239.949219 0 " clip-rule="nonzero"/></clipPath><clipPath id="0313e60cd0"><path d="M 239.949219 0 L 326.113281 19.027344 L 305.964844 110.257812 L 219.804688 91.230469 Z M 239.949219 0 " clip-rule="nonzero"/></clipPath><clipPath id="02aa3fb8e5"><path d="M 239.949219 0 L 326.113281 19.027344 L 305.964844 110.257812 L 219.804688 91.230469 Z M 239.949219 0 " clip-rule="nonzero"/></clipPath><clipPath id="d87eae16aa"><path d="M 253 83 L 266 83 L 266 90 L 253 90 Z M 253 83 " clip-rule="nonzero"/></clipPath><clipPath id="26c898ae3c"><path d="M 239.949219 0 L 326.113281 19.027344 L 305.964844 110.257812 L 219.804688 91.230469 Z M 239.949219 0 " clip-rule="nonzero"/></clipPath><clipPath id="554d7a7c06"><path d="M 239.949219 0 L 326.113281 19.027344 L 305.964844 110.257812 L 219.804688 91.230469 Z M 239.949219 0 " clip-rule="nonzero"/></clipPath><clipPath id="8fbe224a86"><path d="M 239.949219 0 L 326.113281 19.027344 L 305.964844 110.257812 L 219.804688 91.230469 Z M 239.949219 0 " clip-rule="nonzero"/></clipPath><clipPath id="c37f5f81cb"><path d="M 253 85 L 266 85 L 266 90 L 253 90 Z M 253 85 " clip-rule="nonzero"/></clipPath><clipPath id="eef5b697f7"><path d="M 239.949219 0 L 326.113281 19.027344 L 305.964844 110.257812 L 219.804688 91.230469 Z M 239.949219 0 " clip-rule="nonzero"/></clipPath><clipPath id="94fb47d5ed"><path d="M 239.949219 0 L 326.113281 19.027344 L 305.964844 110.257812 L 219.804688 91.230469 Z M 239.949219 0 " clip-rule="nonzero"/></clipPath><clipPath id="f4912bcd92"><path d="M 239.949219 0 L 326.113281 19.027344 L 305.964844 110.257812 L 219.804688 91.230469 Z M 239.949219 0 " clip-rule="nonzero"/></clipPath><clipPath id="853321ea0f"><path d="M 254 95 L 264 95 L 264 101 L 254 101 Z M 254 95 " clip-rule="nonzero"/></clipPath><clipPath id="e3a42f2bbc"><path d="M 239.949219 0 L 326.113281 19.027344 L 305.964844 110.257812 L 219.804688 91.230469 Z M 239.949219 0 " clip-rule="nonzero"/></clipPath><clipPath id="ed3b1a8a2a"><path d="M 239.949219 0 L 326.113281 19.027344 L 305.964844 110.257812 L 219.804688 91.230469 Z M 239.949219 0 " clip-rule="nonzero"/></clipPath><clipPath id="676b63af70"><path d="M 239.949219 0 L 326.113281 19.027344 L 305.964844 110.257812 L 219.804688 91.230469 Z M 239.949219 0 " clip-rule="nonzero"/></clipPath><clipPath id="cc2f099964"><path d="M 254.402344 95.5 L 263.132812 97.425781 L 262.421875 100.644531 L 253.691406 98.714844 Z M 254.402344 95.5 " clip-rule="nonzero"/></clipPath><clipPath id="a3f1c4a054"><path d="M 250 49 L 260 49 L 260 57 L 250 57 Z M 250 49 " clip-rule="nonzero"/></clipPath><clipPath id="969b1faf7d"><path d="M 239.949219 0 L 326.113281 19.027344 L 305.964844 110.257812 L 219.804688 91.230469 Z M 239.949219 0 " clip-rule="nonzero"/></clipPath><clipPath id="d0ba560772"><path d="M 239.949219 0 L 326.113281 19.027344 L 305.964844 110.257812 L 219.804688 91.230469 Z M 239.949219 0 " clip-rule="nonzero"/></clipPath><clipPath id="696ac0df32"><path d="M 239.949219 0 L 326.113281 19.027344 L 305.964844 110.257812 L 219.804688 91.230469 Z M 239.949219 0 " clip-rule="nonzero"/></clipPath><clipPath id="2967e52d24"><path d="M 248 66 L 255 66 L 255 72 L 248 72 Z M 248 66 " clip-rule="nonzero"/></clipPath><clipPath id="bf9c8be883"><path d="M 239.949219 0 L 326.113281 19.027344 L 305.964844 110.257812 L 219.804688 91.230469 Z M 239.949219 0 " clip-rule="nonzero"/></clipPath><clipPath id="1fadc91c1f"><path d="M 239.949219 0 L 326.113281 19.027344 L 305.964844 110.257812 L 219.804688 91.230469 Z M 239.949219 0 " clip-rule="nonzero"/></clipPath><clipPath id="53b20773a3"><path d="M 239.949219 0 L 326.113281 19.027344 L 305.964844 110.257812 L 219.804688 91.230469 Z M 239.949219 0 " clip-rule="nonzero"/></clipPath><clipPath id="6dd7a9e2b4"><path d="M 253 70 L 264 70 L 264 78 L 253 78 Z M 253 70 " clip-rule="nonzero"/></clipPath><clipPath id="74b3ad91d3"><path d="M 239.949219 0 L 326.113281 19.027344 L 305.964844 110.257812 L 219.804688 91.230469 Z M 239.949219 0 " clip-rule="nonzero"/></clipPath><clipPath id="7cd67dc659"><path d="M 239.949219 0 L 326.113281 19.027344 L 305.964844 110.257812 L 219.804688 91.230469 Z M 239.949219 0 " clip-rule="nonzero"/></clipPath><clipPath id="773ff04dad"><path d="M 239.949219 0 L 326.113281 19.027344 L 305.964844 110.257812 L 219.804688 91.230469 Z M 239.949219 0 " clip-rule="nonzero"/></clipPath><clipPath id="8f02ea9e57"><path d="M 246 60 L 251 60 L 251 67 L 246 67 Z M 246 60 " clip-rule="nonzero"/></clipPath><clipPath id="871515c1b6"><path d="M 239.949219 0 L 326.113281 19.027344 L 305.964844 110.257812 L 219.804688 91.230469 Z M 239.949219 0 " clip-rule="nonzero"/></clipPath><clipPath id="36c3603273"><path d="M 239.949219 0 L 326.113281 19.027344 L 305.964844 110.257812 L 219.804688 91.230469 Z M 239.949219 0 " clip-rule="nonzero"/></clipPath><clipPath id="83d39d118d"><path d="M 239.949219 0 L 326.113281 19.027344 L 305.964844 110.257812 L 219.804688 91.230469 Z M 239.949219 0 " clip-rule="nonzero"/></clipPath><clipPath id="b6231eb4c1"><path d="M 261 52 L 264 52 L 264 57 L 261 57 Z M 261 52 " clip-rule="nonzero"/></clipPath><clipPath id="7fb6ed41df"><path d="M 239.949219 0 L 326.113281 19.027344 L 305.964844 110.257812 L 219.804688 91.230469 Z M 239.949219 0 " clip-rule="nonzero"/></clipPath><clipPath id="438e39a35c"><path d="M 239.949219 0 L 326.113281 19.027344 L 305.964844 110.257812 L 219.804688 91.230469 Z M 239.949219 0 " clip-rule="nonzero"/></clipPath><clipPath id="ec9bb1a3e8"><path d="M 239.949219 0 L 326.113281 19.027344 L 305.964844 110.257812 L 219.804688 91.230469 Z M 239.949219 0 " clip-rule="nonzero"/></clipPath><clipPath id="35ae725348"><path d="M 264 56 L 268 56 L 268 60 L 264 60 Z M 264 56 " clip-rule="nonzero"/></clipPath><clipPath id="4fd6443661"><path d="M 239.949219 0 L 326.113281 19.027344 L 305.964844 110.257812 L 219.804688 91.230469 Z M 239.949219 0 " clip-rule="nonzero"/></clipPath><clipPath id="dbf4a1a5a4"><path d="M 239.949219 0 L 326.113281 19.027344 L 305.964844 110.257812 L 219.804688 91.230469 Z M 239.949219 0 " clip-rule="nonzero"/></clipPath><clipPath id="07fb62b052"><path d="M 239.949219 0 L 326.113281 19.027344 L 305.964844 110.257812 L 219.804688 91.230469 Z M 239.949219 0 " clip-rule="nonzero"/></clipPath><clipPath id="bb17d66410"><path d="M 252 55 L 257 55 L 257 62 L 252 62 Z M 252 55 " clip-rule="nonzero"/></clipPath><clipPath id="213be89fc5"><path d="M 239.949219 0 L 326.113281 19.027344 L 305.964844 110.257812 L 219.804688 91.230469 Z M 239.949219 0 " clip-rule="nonzero"/></clipPath><clipPath id="91c14d6802"><path d="M 239.949219 0 L 326.113281 19.027344 L 305.964844 110.257812 L 219.804688 91.230469 Z M 239.949219 0 " clip-rule="nonzero"/></clipPath><clipPath id="99870cc1ac"><path d="M 239.949219 0 L 326.113281 19.027344 L 305.964844 110.257812 L 219.804688 91.230469 Z M 239.949219 0 " clip-rule="nonzero"/></clipPath><clipPath id="08377daa17"><path d="M 252 60 L 257 60 L 257 63 L 252 63 Z M 252 60 " clip-rule="nonzero"/></clipPath><clipPath id="f97af4f2ac"><path d="M 239.949219 0 L 326.113281 19.027344 L 305.964844 110.257812 L 219.804688 91.230469 Z M 239.949219 0 " clip-rule="nonzero"/></clipPath><clipPath id="5a6924b771"><path d="M 239.949219 0 L 326.113281 19.027344 L 305.964844 110.257812 L 219.804688 91.230469 Z M 239.949219 0 " clip-rule="nonzero"/></clipPath><clipPath id="12ebaaa07f"><path d="M 239.949219 0 L 326.113281 19.027344 L 305.964844 110.257812 L 219.804688 91.230469 Z M 239.949219 0 " clip-rule="nonzero"/></clipPath><clipPath id="177e074747"><path d="M 251 60 L 254 60 L 254 64 L 251 64 Z M 251 60 " clip-rule="nonzero"/></clipPath><clipPath id="28a4471076"><path d="M 239.949219 0 L 326.113281 19.027344 L 305.964844 110.257812 L 219.804688 91.230469 Z M 239.949219 0 " clip-rule="nonzero"/></clipPath><clipPath id="20efbc9faf"><path d="M 239.949219 0 L 326.113281 19.027344 L 305.964844 110.257812 L 219.804688 91.230469 Z M 239.949219 0 " clip-rule="nonzero"/></clipPath><clipPath id="7f3abf9277"><path d="M 239.949219 0 L 326.113281 19.027344 L 305.964844 110.257812 L 219.804688 91.230469 Z M 239.949219 0 " clip-rule="nonzero"/></clipPath><clipPath id="dac47a0444"><path d="M 255 67 L 259 67 L 259 71 L 255 71 Z M 255 67 " clip-rule="nonzero"/></clipPath><clipPath id="9de0b48440"><path d="M 239.949219 0 L 326.113281 19.027344 L 305.964844 110.257812 L 219.804688 91.230469 Z M 239.949219 0 " clip-rule="nonzero"/></clipPath><clipPath id="209791b63f"><path d="M 239.949219 0 L 326.113281 19.027344 L 305.964844 110.257812 L 219.804688 91.230469 Z M 239.949219 0 " clip-rule="nonzero"/></clipPath><clipPath id="3b15407e22"><path d="M 239.949219 0 L 326.113281 19.027344 L 305.964844 110.257812 L 219.804688 91.230469 Z M 239.949219 0 " clip-rule="nonzero"/></clipPath><clipPath id="41e026b5eb"><path d="M 254 64 L 257 64 L 257 69 L 254 69 Z M 254 64 " clip-rule="nonzero"/></clipPath><clipPath id="02e4890345"><path d="M 239.949219 0 L 326.113281 19.027344 L 305.964844 110.257812 L 219.804688 91.230469 Z M 239.949219 0 " clip-rule="nonzero"/></clipPath><clipPath id="80ab1028f6"><path d="M 239.949219 0 L 326.113281 19.027344 L 305.964844 110.257812 L 219.804688 91.230469 Z M 239.949219 0 " clip-rule="nonzero"/></clipPath><clipPath id="06b2fa7198"><path d="M 239.949219 0 L 326.113281 19.027344 L 305.964844 110.257812 L 219.804688 91.230469 Z M 239.949219 0 " clip-rule="nonzero"/></clipPath><clipPath id="e878b50ee3"><path d="M 260 52 L 266 52 L 266 60 L 260 60 Z M 260 52 " clip-rule="nonzero"/></clipPath><clipPath id="e64f003cb3"><path d="M 239.949219 0 L 326.113281 19.027344 L 305.964844 110.257812 L 219.804688 91.230469 Z M 239.949219 0 " clip-rule="nonzero"/></clipPath><clipPath id="dc46eed6d9"><path d="M 239.949219 0 L 326.113281 19.027344 L 305.964844 110.257812 L 219.804688 91.230469 Z M 239.949219 0 " clip-rule="nonzero"/></clipPath><clipPath id="62a9103314"><path d="M 239.949219 0 L 326.113281 19.027344 L 305.964844 110.257812 L 219.804688 91.230469 Z M 239.949219 0 " clip-rule="nonzero"/></clipPath><clipPath id="a0f3f8d71f"><path d="M 256 55 L 261 55 L 261 59 L 256 59 Z M 256 55 " clip-rule="nonzero"/></clipPath><clipPath id="bf2772d0f0"><path d="M 239.949219 0 L 326.113281 19.027344 L 305.964844 110.257812 L 219.804688 91.230469 Z M 239.949219 0 " clip-rule="nonzero"/></clipPath><clipPath id="db7f6631c8"><path d="M 239.949219 0 L 326.113281 19.027344 L 305.964844 110.257812 L 219.804688 91.230469 Z M 239.949219 0 " clip-rule="nonzero"/></clipPath><clipPath id="bbaf49707e"><path d="M 239.949219 0 L 326.113281 19.027344 L 305.964844 110.257812 L 219.804688 91.230469 Z M 239.949219 0 " clip-rule="nonzero"/></clipPath><clipPath id="4f720fd6ac"><path d="M 258 58 L 262 58 L 262 63 L 258 63 Z M 258 58 " clip-rule="nonzero"/></clipPath><clipPath id="d9efcadb5d"><path d="M 239.949219 0 L 326.113281 19.027344 L 305.964844 110.257812 L 219.804688 91.230469 Z M 239.949219 0 " clip-rule="nonzero"/></clipPath><clipPath id="afaca63e47"><path d="M 239.949219 0 L 326.113281 19.027344 L 305.964844 110.257812 L 219.804688 91.230469 Z M 239.949219 0 " clip-rule="nonzero"/></clipPath><clipPath id="7f8b14b5c3"><path d="M 239.949219 0 L 326.113281 19.027344 L 305.964844 110.257812 L 219.804688 91.230469 Z M 239.949219 0 " clip-rule="nonzero"/></clipPath><clipPath id="0ede002113"><path d="M 250 36 L 257 36 L 257 43 L 250 43 Z M 250 36 " clip-rule="nonzero"/></clipPath><clipPath id="664fd808ba"><path d="M 239.949219 0 L 326.113281 19.027344 L 305.964844 110.257812 L 219.804688 91.230469 Z M 239.949219 0 " clip-rule="nonzero"/></clipPath><clipPath id="4fc8113c66"><path d="M 239.949219 0 L 326.113281 19.027344 L 305.964844 110.257812 L 219.804688 91.230469 Z M 239.949219 0 " clip-rule="nonzero"/></clipPath><clipPath id="9f1394c2f7"><path d="M 239.949219 0 L 326.113281 19.027344 L 305.964844 110.257812 L 219.804688 91.230469 Z M 239.949219 0 " clip-rule="nonzero"/></clipPath><clipPath id="c768790b07"><path d="M 249 41 L 253 41 L 253 46 L 249 46 Z M 249 41 " clip-rule="nonzero"/></clipPath><clipPath id="c6e8af8065"><path d="M 239.949219 0 L 326.113281 19.027344 L 305.964844 110.257812 L 219.804688 91.230469 Z M 239.949219 0 " clip-rule="nonzero"/></clipPath><clipPath id="85a50134e2"><path d="M 239.949219 0 L 326.113281 19.027344 L 305.964844 110.257812 L 219.804688 91.230469 Z M 239.949219 0 " clip-rule="nonzero"/></clipPath><clipPath id="a2c4f23f6f"><path d="M 239.949219 0 L 326.113281 19.027344 L 305.964844 110.257812 L 219.804688 91.230469 Z M 239.949219 0 " clip-rule="nonzero"/></clipPath><clipPath id="fe33a49d0c"><path d="M 245 55 L 249 55 L 249 62 L 245 62 Z M 245 55 " clip-rule="nonzero"/></clipPath><clipPath id="e0e79ecda0"><path d="M 239.949219 0 L 326.113281 19.027344 L 305.964844 110.257812 L 219.804688 91.230469 Z M 239.949219 0 " clip-rule="nonzero"/></clipPath><clipPath id="485a46466c"><path d="M 239.949219 0 L 326.113281 19.027344 L 305.964844 110.257812 L 219.804688 91.230469 Z M 239.949219 0 " clip-rule="nonzero"/></clipPath><clipPath id="df7d78f8ca"><path d="M 239.949219 0 L 326.113281 19.027344 L 305.964844 110.257812 L 219.804688 91.230469 Z M 239.949219 0 " clip-rule="nonzero"/></clipPath><clipPath id="4420d7f663"><path d="M 246 49 L 250 49 L 250 56 L 246 56 Z M 246 49 " clip-rule="nonzero"/></clipPath><clipPath id="ec7523b2ff"><path d="M 239.949219 0 L 326.113281 19.027344 L 305.964844 110.257812 L 219.804688 91.230469 Z M 239.949219 0 " clip-rule="nonzero"/></clipPath><clipPath id="203bc174fd"><path d="M 239.949219 0 L 326.113281 19.027344 L 305.964844 110.257812 L 219.804688 91.230469 Z M 239.949219 0 " clip-rule="nonzero"/></clipPath><clipPath id="a82b7eae32"><path d="M 239.949219 0 L 326.113281 19.027344 L 305.964844 110.257812 L 219.804688 91.230469 Z M 239.949219 0 " clip-rule="nonzero"/></clipPath><clipPath id="afe2db77f3"><path d="M 259 33 L 269 33 L 269 41 L 259 41 Z M 259 33 " clip-rule="nonzero"/></clipPath><clipPath id="8562107d44"><path d="M 239.949219 0 L 326.113281 19.027344 L 305.964844 110.257812 L 219.804688 91.230469 Z M 239.949219 0 " clip-rule="nonzero"/></clipPath><clipPath id="5bb647b5b9"><path d="M 239.949219 0 L 326.113281 19.027344 L 305.964844 110.257812 L 219.804688 91.230469 Z M 239.949219 0 " clip-rule="nonzero"/></clipPath><clipPath id="2fabb83519"><path d="M 239.949219 0 L 326.113281 19.027344 L 305.964844 110.257812 L 219.804688 91.230469 Z M 239.949219 0 " clip-rule="nonzero"/></clipPath><clipPath id="85d647801e"><path d="M 254 39 L 261 39 L 261 49 L 254 49 Z M 254 39 " clip-rule="nonzero"/></clipPath><clipPath id="91c6e0e6a3"><path d="M 239.949219 0 L 326.113281 19.027344 L 305.964844 110.257812 L 219.804688 91.230469 Z M 239.949219 0 " clip-rule="nonzero"/></clipPath><clipPath id="504f684968"><path d="M 239.949219 0 L 326.113281 19.027344 L 305.964844 110.257812 L 219.804688 91.230469 Z M 239.949219 0 " clip-rule="nonzero"/></clipPath><clipPath id="a4d508bbf5"><path d="M 239.949219 0 L 326.113281 19.027344 L 305.964844 110.257812 L 219.804688 91.230469 Z M 239.949219 0 " clip-rule="nonzero"/></clipPath><clipPath id="f467fe60e9"><path d="M 267 34 L 273 34 L 273 41 L 267 41 Z M 267 34 " clip-rule="nonzero"/></clipPath><clipPath id="354e94ccb5"><path d="M 239.949219 0 L 326.113281 19.027344 L 305.964844 110.257812 L 219.804688 91.230469 Z M 239.949219 0 " clip-rule="nonzero"/></clipPath><clipPath id="33a8a7aa00"><path d="M 239.949219 0 L 326.113281 19.027344 L 305.964844 110.257812 L 219.804688 91.230469 Z M 239.949219 0 " clip-rule="nonzero"/></clipPath><clipPath id="919bdea3bf"><path d="M 239.949219 0 L 326.113281 19.027344 L 305.964844 110.257812 L 219.804688 91.230469 Z M 239.949219 0 " clip-rule="nonzero"/></clipPath><clipPath id="b1bdf0e019"><path d="M 266 31 L 272 31 L 272 35 L 266 35 Z M 266 31 " clip-rule="nonzero"/></clipPath><clipPath id="689e860259"><path d="M 239.949219 0 L 326.113281 19.027344 L 305.964844 110.257812 L 219.804688 91.230469 Z M 239.949219 0 " clip-rule="nonzero"/></clipPath><clipPath id="541518d359"><path d="M 239.949219 0 L 326.113281 19.027344 L 305.964844 110.257812 L 219.804688 91.230469 Z M 239.949219 0 " clip-rule="nonzero"/></clipPath><clipPath id="9a7df5fa94"><path d="M 239.949219 0 L 326.113281 19.027344 L 305.964844 110.257812 L 219.804688 91.230469 Z M 239.949219 0 " clip-rule="nonzero"/></clipPath><clipPath id="80b44fa1e0"><path d="M 270 32 L 274 32 L 274 34 L 270 34 Z M 270 32 " clip-rule="nonzero"/></clipPath><clipPath id="17b04a4abc"><path d="M 239.949219 0 L 326.113281 19.027344 L 305.964844 110.257812 L 219.804688 91.230469 Z M 239.949219 0 " clip-rule="nonzero"/></clipPath><clipPath id="19587efd26"><path d="M 239.949219 0 L 326.113281 19.027344 L 305.964844 110.257812 L 219.804688 91.230469 Z M 239.949219 0 " clip-rule="nonzero"/></clipPath><clipPath id="656d67a96f"><path d="M 239.949219 0 L 326.113281 19.027344 L 305.964844 110.257812 L 219.804688 91.230469 Z M 239.949219 0 " clip-rule="nonzero"/></clipPath><clipPath id="2960a82859"><path d="M 264 41 L 272 41 L 272 51 L 264 51 Z M 264 41 " clip-rule="nonzero"/></clipPath><clipPath id="b8cdafd77b"><path d="M 239.949219 0 L 326.113281 19.027344 L 305.964844 110.257812 L 219.804688 91.230469 Z M 239.949219 0 " clip-rule="nonzero"/></clipPath><clipPath id="359a763158"><path d="M 239.949219 0 L 326.113281 19.027344 L 305.964844 110.257812 L 219.804688 91.230469 Z M 239.949219 0 " clip-rule="nonzero"/></clipPath><clipPath id="13e93c0b25"><path d="M 239.949219 0 L 326.113281 19.027344 L 305.964844 110.257812 L 219.804688 91.230469 Z M 239.949219 0 " clip-rule="nonzero"/></clipPath><clipPath id="122d8194b6"><path d="M 263 49 L 267 49 L 267 53 L 263 53 Z M 263 49 " clip-rule="nonzero"/></clipPath><clipPath id="3a98222453"><path d="M 239.949219 0 L 326.113281 19.027344 L 305.964844 110.257812 L 219.804688 91.230469 Z M 239.949219 0 " clip-rule="nonzero"/></clipPath><clipPath id="6d3422a60a"><path d="M 239.949219 0 L 326.113281 19.027344 L 305.964844 110.257812 L 219.804688 91.230469 Z M 239.949219 0 " clip-rule="nonzero"/></clipPath><clipPath id="88b5b63ce3"><path d="M 239.949219 0 L 326.113281 19.027344 L 305.964844 110.257812 L 219.804688 91.230469 Z M 239.949219 0 " clip-rule="nonzero"/></clipPath><clipPath id="4344cf9660"><path d="M 262 39 L 268 39 L 268 46 L 262 46 Z M 262 39 " clip-rule="nonzero"/></clipPath><clipPath id="ea9b6f31be"><path d="M 239.949219 0 L 326.113281 19.027344 L 305.964844 110.257812 L 219.804688 91.230469 Z M 239.949219 0 " clip-rule="nonzero"/></clipPath><clipPath id="450a2021c7"><path d="M 239.949219 0 L 326.113281 19.027344 L 305.964844 110.257812 L 219.804688 91.230469 Z M 239.949219 0 " clip-rule="nonzero"/></clipPath><clipPath id="9e39485c9e"><path d="M 239.949219 0 L 326.113281 19.027344 L 305.964844 110.257812 L 219.804688 91.230469 Z M 239.949219 0 " clip-rule="nonzero"/></clipPath><clipPath id="8485688318"><path d="M 265 44 L 268 44 L 268 47 L 265 47 Z M 265 44 " clip-rule="nonzero"/></clipPath><clipPath id="ece95e90ff"><path d="M 239.949219 0 L 326.113281 19.027344 L 305.964844 110.257812 L 219.804688 91.230469 Z M 239.949219 0 " clip-rule="nonzero"/></clipPath><clipPath id="1f9c8c6a06"><path d="M 239.949219 0 L 326.113281 19.027344 L 305.964844 110.257812 L 219.804688 91.230469 Z M 239.949219 0 " clip-rule="nonzero"/></clipPath><clipPath id="092fb38ec6"><path d="M 239.949219 0 L 326.113281 19.027344 L 305.964844 110.257812 L 219.804688 91.230469 Z M 239.949219 0 " clip-rule="nonzero"/></clipPath><clipPath id="37cf9b7576"><path d="M 258 46 L 264 46 L 264 50 L 258 50 Z M 258 46 " clip-rule="nonzero"/></clipPath><clipPath id="cf0d276a18"><path d="M 239.949219 0 L 326.113281 19.027344 L 305.964844 110.257812 L 219.804688 91.230469 Z M 239.949219 0 " clip-rule="nonzero"/></clipPath><clipPath id="6f8c3d8a6c"><path d="M 239.949219 0 L 326.113281 19.027344 L 305.964844 110.257812 L 219.804688 91.230469 Z M 239.949219 0 " clip-rule="nonzero"/></clipPath><clipPath id="cdedcb56c6"><path d="M 239.949219 0 L 326.113281 19.027344 L 305.964844 110.257812 L 219.804688 91.230469 Z M 239.949219 0 " clip-rule="nonzero"/></clipPath><clipPath id="7e40a0fdcd"><path d="M 268 53 L 271 53 L 271 59 L 268 59 Z M 268 53 " clip-rule="nonzero"/></clipPath><clipPath id="8dfd60eae5"><path d="M 239.949219 0 L 326.113281 19.027344 L 305.964844 110.257812 L 219.804688 91.230469 Z M 239.949219 0 " clip-rule="nonzero"/></clipPath><clipPath id="c03cc31718"><path d="M 239.949219 0 L 326.113281 19.027344 L 305.964844 110.257812 L 219.804688 91.230469 Z M 239.949219 0 " clip-rule="nonzero"/></clipPath><clipPath id="e9512c9814"><path d="M 239.949219 0 L 326.113281 19.027344 L 305.964844 110.257812 L 219.804688 91.230469 Z M 239.949219 0 " clip-rule="nonzero"/></clipPath><clipPath id="80d2528033"><path d="M 269 49 L 272 49 L 272 55 L 269 55 Z M 269 49 " clip-rule="nonzero"/></clipPath><clipPath id="ed18efe9df"><path d="M 239.949219 0 L 326.113281 19.027344 L 305.964844 110.257812 L 219.804688 91.230469 Z M 239.949219 0 " clip-rule="nonzero"/></clipPath><clipPath id="06c8e9aaee"><path d="M 239.949219 0 L 326.113281 19.027344 L 305.964844 110.257812 L 219.804688 91.230469 Z M 239.949219 0 " clip-rule="nonzero"/></clipPath><clipPath id="095d4294f2"><path d="M 239.949219 0 L 326.113281 19.027344 L 305.964844 110.257812 L 219.804688 91.230469 Z M 239.949219 0 " clip-rule="nonzero"/></clipPath><clipPath id="49c0eaa775"><path d="M 251 46 L 254 46 L 254 48 L 251 48 Z M 251 46 " clip-rule="nonzero"/></clipPath><clipPath id="8d1d7ca97f"><path d="M 239.949219 0 L 326.113281 19.027344 L 305.964844 110.257812 L 219.804688 91.230469 Z M 239.949219 0 " clip-rule="nonzero"/></clipPath><clipPath id="f173498220"><path d="M 239.949219 0 L 326.113281 19.027344 L 305.964844 110.257812 L 219.804688 91.230469 Z M 239.949219 0 " clip-rule="nonzero"/></clipPath><clipPath id="3ed855b13a"><path d="M 239.949219 0 L 326.113281 19.027344 L 305.964844 110.257812 L 219.804688 91.230469 Z M 239.949219 0 " clip-rule="nonzero"/></clipPath><clipPath id="8c1c509a77"><path d="M 249 46 L 253 46 L 253 49 L 249 49 Z M 249 46 " clip-rule="nonzero"/></clipPath><clipPath id="0c8f9d9fdb"><path d="M 239.949219 0 L 326.113281 19.027344 L 305.964844 110.257812 L 219.804688 91.230469 Z M 239.949219 0 " clip-rule="nonzero"/></clipPath><clipPath id="485140275f"><path d="M 239.949219 0 L 326.113281 19.027344 L 305.964844 110.257812 L 219.804688 91.230469 Z M 239.949219 0 " clip-rule="nonzero"/></clipPath><clipPath id="e143e28516"><path d="M 239.949219 0 L 326.113281 19.027344 L 305.964844 110.257812 L 219.804688 91.230469 Z M 239.949219 0 " clip-rule="nonzero"/></clipPath><clipPath id="474ab6ad33"><path d="M 257 42 L 261 42 L 261 46 L 257 46 Z M 257 42 " clip-rule="nonzero"/></clipPath><clipPath id="1cb9811b3f"><path d="M 239.949219 0 L 326.113281 19.027344 L 305.964844 110.257812 L 219.804688 91.230469 Z M 239.949219 0 " clip-rule="nonzero"/></clipPath><clipPath id="13ed9bbb91"><path d="M 239.949219 0 L 326.113281 19.027344 L 305.964844 110.257812 L 219.804688 91.230469 Z M 239.949219 0 " clip-rule="nonzero"/></clipPath><clipPath id="c850153bf6"><path d="M 239.949219 0 L 326.113281 19.027344 L 305.964844 110.257812 L 219.804688 91.230469 Z M 239.949219 0 " clip-rule="nonzero"/></clipPath><clipPath id="b254d28842"><path d="M 262 61 L 268 61 L 268 68 L 262 68 Z M 262 61 " clip-rule="nonzero"/></clipPath><clipPath id="d494c1247a"><path d="M 239.949219 0 L 326.113281 19.027344 L 305.964844 110.257812 L 219.804688 91.230469 Z M 239.949219 0 " clip-rule="nonzero"/></clipPath><clipPath id="d3fb72f600"><path d="M 239.949219 0 L 326.113281 19.027344 L 305.964844 110.257812 L 219.804688 91.230469 Z M 239.949219 0 " clip-rule="nonzero"/></clipPath><clipPath id="f7a9c3baf2"><path d="M 239.949219 0 L 326.113281 19.027344 L 305.964844 110.257812 L 219.804688 91.230469 Z M 239.949219 0 " clip-rule="nonzero"/></clipPath><clipPath id="a0b4753224"><path d="M 267 59 L 270 59 L 270 63 L 267 63 Z M 267 59 " clip-rule="nonzero"/></clipPath><clipPath id="bd14b307e3"><path d="M 239.949219 0 L 326.113281 19.027344 L 305.964844 110.257812 L 219.804688 91.230469 Z M 239.949219 0 " clip-rule="nonzero"/></clipPath><clipPath id="ff6edc0db5"><path d="M 239.949219 0 L 326.113281 19.027344 L 305.964844 110.257812 L 219.804688 91.230469 Z M 239.949219 0 " clip-rule="nonzero"/></clipPath><clipPath id="81121bd6fd"><path d="M 239.949219 0 L 326.113281 19.027344 L 305.964844 110.257812 L 219.804688 91.230469 Z M 239.949219 0 " clip-rule="nonzero"/></clipPath><clipPath id="a6a2f3c54f"><path d="M 261 70 L 267 70 L 267 81 L 261 81 Z M 261 70 " clip-rule="nonzero"/></clipPath><clipPath id="ee53b424ba"><path d="M 239.949219 0 L 326.113281 19.027344 L 305.964844 110.257812 L 219.804688 91.230469 Z M 239.949219 0 " clip-rule="nonzero"/></clipPath><clipPath id="c42c2f833d"><path d="M 239.949219 0 L 326.113281 19.027344 L 305.964844 110.257812 L 219.804688 91.230469 Z M 239.949219 0 " clip-rule="nonzero"/></clipPath><clipPath id="8efc1cd240"><path d="M 239.949219 0 L 326.113281 19.027344 L 305.964844 110.257812 L 219.804688 91.230469 Z M 239.949219 0 " clip-rule="nonzero"/></clipPath><clipPath id="841b485c94"><path d="M 257 64 L 264 64 L 264 72 L 257 72 Z M 257 64 " clip-rule="nonzero"/></clipPath><clipPath id="97b84d0b7a"><path d="M 239.949219 0 L 326.113281 19.027344 L 305.964844 110.257812 L 219.804688 91.230469 Z M 239.949219 0 " clip-rule="nonzero"/></clipPath><clipPath id="a019aa3f20"><path d="M 239.949219 0 L 326.113281 19.027344 L 305.964844 110.257812 L 219.804688 91.230469 Z M 239.949219 0 " clip-rule="nonzero"/></clipPath><clipPath id="2be36d4a19"><path d="M 239.949219 0 L 326.113281 19.027344 L 305.964844 110.257812 L 219.804688 91.230469 Z M 239.949219 0 " clip-rule="nonzero"/></clipPath><clipPath id="efaf94c61f"><path d="M 261 71 L 263 71 L 263 74 L 261 74 Z M 261 71 " clip-rule="nonzero"/></clipPath><clipPath id="44d764939f"><path d="M 239.949219 0 L 326.113281 19.027344 L 305.964844 110.257812 L 219.804688 91.230469 Z M 239.949219 0 " clip-rule="nonzero"/></clipPath><clipPath id="b314fdaf9e"><path d="M 239.949219 0 L 326.113281 19.027344 L 305.964844 110.257812 L 219.804688 91.230469 Z M 239.949219 0 " clip-rule="nonzero"/></clipPath><clipPath id="ae30933660"><path d="M 239.949219 0 L 326.113281 19.027344 L 305.964844 110.257812 L 219.804688 91.230469 Z M 239.949219 0 " clip-rule="nonzero"/></clipPath><clipPath id="fbff575d73"><path d="M 264 68 L 268 68 L 268 71 L 264 71 Z M 264 68 " clip-rule="nonzero"/></clipPath><clipPath id="6f412d341e"><path d="M 239.949219 0 L 326.113281 19.027344 L 305.964844 110.257812 L 219.804688 91.230469 Z M 239.949219 0 " clip-rule="nonzero"/></clipPath><clipPath id="5761c3390e"><path d="M 239.949219 0 L 326.113281 19.027344 L 305.964844 110.257812 L 219.804688 91.230469 Z M 239.949219 0 " clip-rule="nonzero"/></clipPath><clipPath id="ee156a90f6"><path d="M 239.949219 0 L 326.113281 19.027344 L 305.964844 110.257812 L 219.804688 91.230469 Z M 239.949219 0 " clip-rule="nonzero"/></clipPath><clipPath id="ed7709ece8"><path d="M 295 19 L 327 19 L 327 35 L 295 35 Z M 295 19 " clip-rule="nonzero"/></clipPath><clipPath id="d2c5cec74b"><path d="M 239.949219 0 L 326.113281 19.027344 L 305.964844 110.257812 L 219.804688 91.230469 Z M 239.949219 0 " clip-rule="nonzero"/></clipPath><clipPath id="cac5bb2939"><path d="M 239.949219 0 L 326.113281 19.027344 L 305.964844 110.257812 L 219.804688 91.230469 Z M 239.949219 0 " clip-rule="nonzero"/></clipPath><clipPath id="a5b30e8ab9"><path d="M 239.949219 0 L 326.113281 19.027344 L 305.964844 110.257812 L 219.804688 91.230469 Z M 239.949219 0 " clip-rule="nonzero"/></clipPath><clipPath id="4ef4177893"><path d="M 299.976562 13.257812 L 326.066406 19.019531 L 321.4375 39.984375 L 295.347656 34.222656 Z M 299.976562 13.257812 " clip-rule="nonzero"/></clipPath><clipPath id="1c9140b0eb"><path d="M 292 15 L 307 15 L 307 32 L 292 32 Z M 292 15 " clip-rule="nonzero"/></clipPath><clipPath id="bb7bdd9caf"><path d="M 239.949219 0 L 326.113281 19.027344 L 305.964844 110.257812 L 219.804688 91.230469 Z M 239.949219 0 " clip-rule="nonzero"/></clipPath><clipPath id="20f754a8b5"><path d="M 239.949219 0 L 326.113281 19.027344 L 305.964844 110.257812 L 219.804688 91.230469 Z M 239.949219 0 " clip-rule="nonzero"/></clipPath><clipPath id="4c220e174c"><path d="M 239.949219 0 L 326.113281 19.027344 L 305.964844 110.257812 L 219.804688 91.230469 Z M 239.949219 0 " clip-rule="nonzero"/></clipPath><clipPath id="01a09202f0"><path d="M 297 35 L 312 35 L 312 40 L 297 40 Z M 297 35 " clip-rule="nonzero"/></clipPath><clipPath id="ec315ec11d"><path d="M 239.949219 0 L 326.113281 19.027344 L 305.964844 110.257812 L 219.804688 91.230469 Z M 239.949219 0 " clip-rule="nonzero"/></clipPath><clipPath id="59e7239771"><path d="M 239.949219 0 L 326.113281 19.027344 L 305.964844 110.257812 L 219.804688 91.230469 Z M 239.949219 0 " clip-rule="nonzero"/></clipPath><clipPath id="cdc8bb929b"><path d="M 239.949219 0 L 326.113281 19.027344 L 305.964844 110.257812 L 219.804688 91.230469 Z M 239.949219 0 " clip-rule="nonzero"/></clipPath><clipPath id="bc25a1be6b"><path d="M 240 0 L 262 0 L 262 27 L 240 27 Z M 240 0 " clip-rule="nonzero"/></clipPath><clipPath id="45594cca7d"><path d="M 239.949219 0 L 326.113281 19.027344 L 305.964844 110.257812 L 219.804688 91.230469 Z M 239.949219 0 " clip-rule="nonzero"/></clipPath><clipPath id="58b8ff6fff"><path d="M 239.949219 0 L 326.113281 19.027344 L 305.964844 110.257812 L 219.804688 91.230469 Z M 239.949219 0 " clip-rule="nonzero"/></clipPath><clipPath id="572ab6aa55"><path d="M 239.949219 0 L 326.113281 19.027344 L 305.964844 110.257812 L 219.804688 91.230469 Z M 239.949219 0 " clip-rule="nonzero"/></clipPath><clipPath id="1b4d445d16"><path d="M 259 4 L 265 4 L 265 26 L 259 26 Z M 259 4 " clip-rule="nonzero"/></clipPath><clipPath id="94e149e6e0"><path d="M 239.949219 0 L 326.113281 19.027344 L 305.964844 110.257812 L 219.804688 91.230469 Z M 239.949219 0 " clip-rule="nonzero"/></clipPath><clipPath id="0ea9b4a3db"><path d="M 239.949219 0 L 326.113281 19.027344 L 305.964844 110.257812 L 219.804688 91.230469 Z M 239.949219 0 " clip-rule="nonzero"/></clipPath><clipPath id="24f11238e0"><path d="M 239.949219 0 L 326.113281 19.027344 L 305.964844 110.257812 L 219.804688 91.230469 Z M 239.949219 0 " clip-rule="nonzero"/></clipPath><clipPath id="57bd50c7df"><path d="M 246 22 L 258 22 L 258 30 L 246 30 Z M 246 22 " clip-rule="nonzero"/></clipPath><clipPath id="8efc24fd34"><path d="M 239.949219 0 L 326.113281 19.027344 L 305.964844 110.257812 L 219.804688 91.230469 Z M 239.949219 0 " clip-rule="nonzero"/></clipPath><clipPath id="2aa284e359"><path d="M 239.949219 0 L 326.113281 19.027344 L 305.964844 110.257812 L 219.804688 91.230469 Z M 239.949219 0 " clip-rule="nonzero"/></clipPath><clipPath id="acd8cc3126"><path d="M 239.949219 0 L 326.113281 19.027344 L 305.964844 110.257812 L 219.804688 91.230469 Z M 239.949219 0 " clip-rule="nonzero"/></clipPath></defs><g fill="#004aad" fill-opacity="1"><g transform="translate(44.19423, 300.100652)"><g><path d="M 97.515625 -203.09375 C 98.578125 -198.195312 105.109375 -195.75 117.109375 -195.75 L 136.703125 -110.046875 L 153.84375 -110.046875 L 153.84375 -107.59375 L 139.140625 -105.15625 L 139.140625 -102.703125 C 144.035156 -102.703125 146.484375 -101.070312 146.484375 -97.8125 L 166.078125 -97.8125 L 166.078125 -95.359375 C 166.078125 -91.710938 157.914062 -88.445312 141.59375 -85.5625 L 146.484375 -70.875 L 144.046875 -63.515625 L 146.484375 -48.828125 L 144.046875 -46.375 L 146.484375 -46.375 L 144.046875 -43.9375 L 146.484375 -14.546875 L 146.484375 0.140625 L 144.046875 -2.3125 L 141.59375 -2.3125 L 148.9375 34.421875 L 144.046875 34.421875 C 144.046875 29.523438 142.410156 27.078125 139.140625 27.078125 L 139.140625 29.53125 L 141.59375 36.875 L 139.140625 36.875 L 136.703125 34.421875 L 134.25 34.421875 C 134.25 39.316406 132.613281 41.765625 129.34375 41.765625 L 117.109375 0.140625 L 114.65625 0.140625 L 114.65625 9.9375 L 112.203125 9.9375 L 107.3125 -19.453125 L 114.65625 -14.546875 L 114.65625 -17 C 113.3125 -31.6875 110.863281 -39.03125 107.3125 -39.03125 L 109.765625 -41.484375 L 109.765625 -48.828125 L 104.859375 -48.828125 L 104.859375 -41.484375 L 102.421875 -41.484375 L 102.421875 -51.28125 L 104.859375 -53.734375 L 102.421875 -53.734375 L 99.96875 -51.28125 L 99.96875 -61.078125 L 102.421875 -61.078125 L 104.859375 -58.625 L 107.3125 -58.625 L 104.859375 -61.078125 L 104.859375 -75.765625 L 50.984375 -63.515625 L 50.984375 -58.625 L 68.125 -63.515625 L 77.921875 -61.078125 L 90.171875 -63.515625 L 90.171875 -58.625 C 55.890625 -52.476562 38.75 -44.316406 38.75 -34.140625 C 34.425781 -16.179688 29.53125 -4.753906 24.0625 0.140625 L 24.0625 5.046875 L 16.703125 5.046875 L 14.265625 2.59375 L 11.8125 2.59375 L 11.8125 5.046875 L 4.46875 0.140625 L 9.359375 -14.546875 L 6.921875 -14.546875 C 2.015625 -14.546875 -0.4375 -8.015625 -0.4375 5.046875 L -5.328125 0.140625 L -2.875 -14.546875 L -10.234375 -21.890625 L 31.40625 -122.296875 L 33.84375 -122.296875 C 33.84375 -117.398438 35.476562 -114.953125 38.75 -114.953125 L 41.203125 -127.1875 L 38.75 -124.734375 L 36.296875 -124.734375 L 36.296875 -134.53125 L 38.75 -146.78125 L 41.203125 -144.328125 L 43.640625 -144.328125 L 41.203125 -146.78125 L 41.203125 -149.234375 L 46.09375 -159.03125 L 48.546875 -159.03125 L 50.984375 -156.578125 L 53.4375 -156.578125 L 53.4375 -159.03125 C 53.4375 -162.289062 50.988281 -163.921875 46.09375 -163.921875 L 58.34375 -198.203125 L 68.125 -198.203125 L 65.6875 -195.75 L 65.6875 -193.3125 C 77.019531 -199.832031 87.628906 -203.09375 97.515625 -203.09375 Z M 82.828125 -146.78125 L 63.234375 -95.359375 L 68.125 -95.359375 C 84.457031 -95.359375 93.4375 -100.253906 95.0625 -110.046875 L 85.28125 -146.78125 Z M 60.78125 -132.09375 L 55.890625 -114.953125 L 53.4375 -117.390625 L 50.984375 -117.390625 L 53.4375 -107.59375 L 55.890625 -107.59375 L 63.234375 -129.640625 L 63.234375 -132.09375 Z M 33.84375 -110.046875 L 31.40625 -107.59375 L 31.40625 -102.703125 L 33.84375 -102.703125 L 36.296875 -110.046875 Z M 48.546875 -100.25 L 46.09375 -90.453125 L 48.546875 -90.453125 L 50.984375 -92.90625 L 50.984375 -100.25 Z M 26.5 -97.8125 L 24.0625 -88.015625 L 26.5 -88.015625 L 31.40625 -97.8125 Z M 68.125 -90.453125 L 68.125 -88.015625 L 73.03125 -88.015625 C 87.71875 -89.640625 95.0625 -92.085938 95.0625 -95.359375 L 92.625 -95.359375 Z M 102.421875 -36.59375 L 107.3125 -36.59375 L 107.3125 -21.890625 L 104.859375 -21.890625 Z M 136.703125 -19.453125 L 136.703125 -14.546875 L 139.140625 -4.75 L 141.59375 -4.75 L 141.59375 -9.65625 L 139.140625 -19.453125 Z M 112.203125 -12.09375 L 112.203125 -7.203125 L 119.5625 -9.65625 L 119.5625 -14.546875 Z M 112.203125 -12.09375 "/></g></g></g><g fill="#004aad" fill-opacity="1"><g transform="translate(208.198291, 300.100652)"><g><path d="M 55.453125 -191 C 55.066406 -186.101562 58.140625 -183.65625 64.671875 -183.65625 L 69.140625 -173.859375 L 66.546875 -171.40625 L 69 -171.40625 C 57.28125 -136.84375 50.125 -96.847656 47.53125 -51.421875 L 46.671875 -36.734375 L 49.125 -34.28125 L 48.96875 -31.828125 L 46.375 -29.390625 L 48.828125 -29.390625 L 46.234375 -26.9375 L 47.671875 -9.796875 L 47.390625 -4.890625 C 38.648438 5.671875 34.085938 13.832031 33.703125 19.59375 L 23.90625 19.59375 L 12.09375 14.6875 L 15.5625 -2.453125 L 6.1875 -12.25 L 10.65625 -48.96875 L 13.109375 -93.046875 L 18.4375 -100.390625 L 19.015625 -110.1875 L 16.703125 -112.640625 L 16.859375 -115.09375 L 21.75 -115.09375 L 21.890625 -117.546875 L 19.59375 -119.984375 L 29.53125 -166.515625 L 27.078125 -166.515625 L 29.671875 -168.96875 L 30.390625 -183.65625 L 28.09375 -186.109375 L 28.234375 -188.546875 Z M 28.375 -146.921875 L 27.515625 -129.78125 L 29.96875 -129.78125 L 30.828125 -146.921875 Z M 24.625 -122.4375 L 23.765625 -107.75 L 26.21875 -107.75 L 27.078125 -122.4375 Z M 20.890625 -100.390625 L 20.171875 -85.703125 L 22.609375 -85.703125 L 23.328125 -100.390625 Z M 20.453125 -2.453125 L 19.734375 9.796875 L 24.78125 4.890625 L 25.359375 -2.453125 Z M 20.453125 -2.453125 "/></g></g></g><g clip-path="url(#6a142ffadf)"><g clip-path="url(#6dd121c130)"><g clip-path="url(#96d0f44fec)"><g clip-path="url(#d2e17d4500)"><path fill="#89dbdf" d="M 265.101562 88.363281 L 254.34375 85.988281 C 255.101562 85.082031 256.898438 83.328125 256.398438 80.105469 C 255.65625 80.195312 254.878906 80.167969 254.101562 79.996094 C 251.960938 79.523438 250.292969 78.09375 249.5 76.296875 C 245.78125 75.558594 243.449219 71.914062 244.503906 68.492188 C 242.851562 67.222656 242.449219 64.964844 243.003906 63.136719 C 241.324219 60.804688 242.085938 57.222656 244.542969 55.757812 C 243.121094 53.457031 244.078125 48.554688 246.144531 46.703125 C 246.34375 46.527344 246.546875 46.378906 246.761719 46.265625 C 246.796875 46.128906 246.839844 45.992188 246.886719 45.859375 C 245.605469 43.703125 246.570312 40.992188 248.957031 40.085938 C 249.257812 38.589844 250.015625 37.027344 251.210938 35.625 C 253.359375 33.113281 256.328125 31.816406 258.777344 32.089844 C 259.664062 29.296875 262.710938 28.726562 264.894531 29.785156 C 265.714844 28.179688 267.617188 27.277344 269.558594 27.707031 C 270.128906 27.832031 270.648438 28.0625 271.097656 28.367188 C 271.980469 27.277344 273.488281 26.722656 275.015625 27.058594 C 276.589844 27.40625 278.101562 28.757812 277.917969 30.34375 L 265.101562 88.363281 " fill-opacity="1" fill-rule="evenodd"/></g></g></g></g><g clip-path="url(#e50ec05ae8)"><g clip-path="url(#8c07a7d80d)"><g clip-path="url(#d313747a3b)"><g clip-path="url(#ce41923099)"><path fill="#fec104" d="M 280.984375 29.347656 L 280.988281 29.347656 C 295.480469 32.546875 304.726562 46.46875 301.640625 60.441406 C 299.886719 68.378906 294.566406 74.691406 287.574219 77.953125 C 283.191406 79.996094 279.703125 83.28125 277.871094 88.933594 L 268.292969 86.816406 L 280.984375 29.347656 " fill-opacity="1" fill-rule="evenodd"/></g></g></g></g><g clip-path="url(#cfd91c21cf)"><g clip-path="url(#436ed9725e)"><g clip-path="url(#fe3aa46160)"><g clip-path="url(#f88dfffac3)"><path fill="#fee593" d="M 276.738281 48.585938 C 277.097656 48.832031 277.34375 49.230469 277.367188 49.683594 L 277.59375 53.863281 C 277.632812 54.640625 277.011719 55.296875 276.210938 55.324219 C 275.878906 55.335938 275.5625 55.238281 275.308594 55.0625 Z M 279.558594 49.144531 C 280.359375 49.117188 281.050781 49.730469 281.089844 50.503906 L 281.316406 54.683594 C 281.359375 55.460938 280.734375 56.121094 279.933594 56.148438 C 279.132812 56.175781 278.441406 55.566406 278.398438 54.789062 L 278.175781 50.609375 C 278.132812 49.832031 278.753906 49.175781 279.558594 49.144531 Z M 274.894531 88.273438 L 286.777344 56.417969 C 286.847656 56.230469 286.902344 56.058594 286.933594 55.902344 C 287.132812 55.003906 286.984375 54.109375 286.558594 53.355469 C 286.128906 52.601562 285.429688 51.996094 284.527344 51.671875 C 284.34375 51.605469 284.167969 51.550781 284.003906 51.515625 C 283.296875 51.359375 282.601562 51.785156 282.449219 52.464844 C 282.300781 53.148438 282.75 53.828125 283.457031 53.980469 C 283.542969 54 283.605469 54.019531 283.648438 54.035156 C 283.933594 54.136719 284.148438 54.316406 284.273438 54.539062 C 284.398438 54.765625 284.441406 55.042969 284.375 55.339844 C 284.359375 55.417969 284.339844 55.484375 284.324219 55.535156 L 272.320312 87.707031 L 268.292969 86.816406 L 274.894531 88.273438 " fill-opacity="1" fill-rule="evenodd"/></g></g></g></g><g clip-path="url(#c8a61e2ced)"><g clip-path="url(#41cc4ba07e)"><g clip-path="url(#4ac48d9a8d)"><g clip-path="url(#d70dd53aa8)"><path fill="#6594e7" d="M 267.476562 90.515625 L 277.132812 92.648438 C 277.988281 92.835938 278.5 93.839844 278.269531 94.878906 C 278.039062 95.917969 277.152344 96.617188 276.300781 96.425781 L 266.644531 94.292969 L 267.476562 90.515625 " fill-opacity="1" fill-rule="evenodd"/></g></g></g></g><g clip-path="url(#8846aed96e)"><g clip-path="url(#5b02107aae)"><g clip-path="url(#4e29b9d31f)"><g clip-path="url(#6887c2a90d)"><path fill="#94c2f5" d="M 277.785156 95.855469 C 277.394531 96.308594 276.839844 96.546875 276.300781 96.425781 L 266.644531 94.292969 L 267.019531 92.582031 L 276.679688 94.714844 C 277.21875 94.835938 277.621094 95.28125 277.785156 95.855469 " fill-opacity="1" fill-rule="evenodd"/></g></g></g></g><g clip-path="url(#cd6650f591)"><g clip-path="url(#aa29599dfd)"><g clip-path="url(#48be9c60f7)"><g clip-path="url(#be68f5c3ff)"><path fill="#6594e7" d="M 266.644531 94.292969 L 275.414062 96.230469 C 276.265625 96.417969 276.777344 97.421875 276.546875 98.460938 C 276.320312 99.5 275.433594 100.199219 274.578125 100.007812 L 265.808594 98.070312 L 266.644531 94.292969 " fill-opacity="1" fill-rule="evenodd"/></g></g></g></g><g clip-path="url(#0db28f86d6)"><g clip-path="url(#b410689cb7)"><g clip-path="url(#ff7ac37e6e)"><g clip-path="url(#bd0bd5d002)"><path fill="#94c2f5" d="M 276.066406 99.4375 C 275.675781 99.890625 275.121094 100.128906 274.578125 100.007812 L 265.808594 98.070312 L 266.1875 96.359375 L 274.957031 98.296875 C 275.5 98.417969 275.902344 98.863281 276.066406 99.4375 " fill-opacity="1" fill-rule="evenodd"/></g></g></g></g><g clip-path="url(#987087da59)"><g clip-path="url(#c312d53463)"><g clip-path="url(#9acb55f393)"><g clip-path="url(#ce1cd4b321)"><path fill="#6594e7" d="M 268.3125 86.738281 L 278.5 88.988281 C 279.546875 89.21875 280.21875 90.257812 279.988281 91.296875 C 279.761719 92.335938 278.714844 92.996094 277.664062 92.765625 L 267.476562 90.515625 L 268.3125 86.738281 " fill-opacity="1" fill-rule="evenodd"/></g></g></g></g><g clip-path="url(#25c322cb19)"><g clip-path="url(#13859ae41a)"><g clip-path="url(#000c4aa1ea)"><g clip-path="url(#91a0562d2a)"><path fill="#94c2f5" d="M 279.507812 92.273438 C 279.117188 92.726562 278.5625 92.964844 278.019531 92.84375 L 267.476562 90.515625 L 267.855469 88.804688 L 278.398438 91.132812 C 278.941406 91.253906 279.34375 91.699219 279.507812 92.273438 " fill-opacity="1" fill-rule="evenodd"/></g></g></g></g><g clip-path="url(#93878e062f)"><g clip-path="url(#cc3d164afd)"><g clip-path="url(#8ecb30a92d)"><g clip-path="url(#583459457d)"><g clip-path="url(#01c7549a04)"><path fill="#6594e7" d="M 274.5 99.992188 C 273.484375 101.707031 271.703125 102.691406 269.972656 102.3125 L 265.109375 101.238281 L 265.808594 98.070312 L 274.5 99.992188 " fill-opacity="1" fill-rule="evenodd"/></g></g></g></g></g><g clip-path="url(#e2a557290a)"><g clip-path="url(#7848ed819c)"><g clip-path="url(#471f1bd7ac)"><g clip-path="url(#017ceb0c14)"><path fill="#b0bec5" d="M 264.789062 89.777344 L 255.132812 87.644531 C 254.28125 87.457031 253.390625 88.164062 253.160156 89.214844 C 252.925781 90.269531 253.433594 91.285156 254.289062 91.472656 L 263.945312 93.605469 L 264.789062 89.777344 " fill-opacity="1" fill-rule="evenodd"/></g></g></g></g><g clip-path="url(#902f60a6c7)"><g clip-path="url(#a0befc3ce4)"><g clip-path="url(#53b75c7abd)"><g clip-path="url(#27b9101d2e)"><path fill="#9aa6ae" d="M 253.183594 90.320312 C 253.34375 90.902344 253.746094 91.351562 254.289062 91.472656 L 263.945312 93.605469 L 264.328125 91.871094 L 254.671875 89.738281 C 254.128906 89.617188 253.574219 89.859375 253.183594 90.320312 " fill-opacity="1" fill-rule="evenodd"/></g></g></g></g><g clip-path="url(#b2898ba766)"><g clip-path="url(#620f1673ae)"><g clip-path="url(#bd6093afd0)"><g clip-path="url(#432802b2e8)"><path fill="#b0bec5" d="M 263.945312 93.605469 L 255.175781 91.667969 C 254.320312 91.480469 253.433594 92.1875 253.199219 93.238281 C 252.96875 94.289062 253.476562 95.304688 254.328125 95.492188 L 263.101562 97.429688 L 263.945312 93.605469 " fill-opacity="1" fill-rule="evenodd"/></g></g></g></g><g clip-path="url(#a61d59e13a)"><g clip-path="url(#921bf9a374)"><g clip-path="url(#0313e60cd0)"><g clip-path="url(#02aa3fb8e5)"><path fill="#9aa6ae" d="M 253.222656 94.339844 C 253.386719 94.921875 253.789062 95.375 254.328125 95.492188 L 263.101562 97.429688 L 263.484375 95.699219 L 254.710938 93.761719 C 254.171875 93.640625 253.617188 93.882812 253.222656 94.339844 " fill-opacity="1" fill-rule="evenodd"/></g></g></g></g><g clip-path="url(#d87eae16aa)"><g clip-path="url(#26c898ae3c)"><g clip-path="url(#554d7a7c06)"><g clip-path="url(#8fbe224a86)"><path fill="#b0bec5" d="M 265.636719 85.953125 L 255.449219 83.703125 C 254.398438 83.46875 253.351562 84.140625 253.117188 85.195312 C 252.886719 86.246094 253.554688 87.296875 254.605469 87.527344 L 264.789062 89.777344 L 265.636719 85.953125 " fill-opacity="1" fill-rule="evenodd"/></g></g></g></g><g clip-path="url(#c37f5f81cb)"><g clip-path="url(#eef5b697f7)"><g clip-path="url(#94fb47d5ed)"><g clip-path="url(#f4912bcd92)"><path fill="#9aa6ae" d="M 253.179688 86.253906 C 253.394531 86.875 253.917969 87.378906 254.605469 87.527344 L 264.789062 89.777344 L 265.171875 88.046875 L 254.628906 85.714844 C 254.105469 85.601562 253.570312 85.824219 253.179688 86.253906 " fill-opacity="1" fill-rule="evenodd"/></g></g></g></g><g clip-path="url(#853321ea0f)"><g clip-path="url(#e3a42f2bbc)"><g clip-path="url(#ed3b1a8a2a)"><g clip-path="url(#676b63af70)"><g clip-path="url(#cc2f099964)"><path fill="#b0bec5" d="M 254.410156 95.511719 C 254.605469 97.519531 255.800781 99.179688 257.53125 99.5625 L 262.390625 100.636719 L 263.101562 97.429688 L 254.410156 95.511719 " fill-opacity="1" fill-rule="evenodd"/></g></g></g></g></g><g clip-path="url(#a3f1c4a054)"><g clip-path="url(#969b1faf7d)"><g clip-path="url(#d0ba560772)"><g clip-path="url(#696ac0df32)"><path fill="#467cdd" d="M 258.917969 52.371094 C 259.054688 52.5 259.269531 52.5 259.402344 52.371094 C 259.511719 52.261719 259.527344 52.101562 259.453125 51.976562 C 258.878906 50.804688 257.871094 49.949219 256.707031 49.519531 C 255.53125 49.085938 254.1875 49.082031 252.960938 49.609375 L 252.957031 49.609375 C 251.734375 50.136719 250.855469 51.09375 250.429688 52.214844 C 250 53.335938 250.019531 54.625 250.589844 55.816406 C 250.667969 55.980469 250.871094 56.054688 251.042969 55.980469 C 251.214844 55.90625 251.289062 55.714844 251.207031 55.546875 C 250.71875 54.527344 250.703125 53.417969 251.070312 52.453125 C 251.4375 51.492188 252.1875 50.675781 253.226562 50.21875 C 253.242188 50.214844 253.257812 50.207031 253.273438 50.199219 C 254.324219 49.757812 255.464844 49.765625 256.46875 50.132812 C 257.476562 50.503906 258.339844 51.238281 258.832031 52.246094 C 258.851562 52.292969 258.878906 52.335938 258.917969 52.371094 " fill-opacity="1" fill-rule="evenodd"/></g></g></g></g><g clip-path="url(#2967e52d24)"><g clip-path="url(#bf9c8be883)"><g clip-path="url(#1fadc91c1f)"><g clip-path="url(#53b20773a3)"><path fill="#467cdd" d="M 250.304688 70.53125 Z M 254.882812 70.855469 C 255.007812 70.71875 254.996094 70.511719 254.855469 70.386719 C 254.714844 70.265625 254.5 70.273438 254.371094 70.40625 C 253.839844 70.964844 253.117188 71.257812 252.382812 71.28125 C 251.648438 71.304688 250.894531 71.054688 250.304688 70.535156 L 250.304688 70.53125 C 249.710938 70.011719 249.394531 69.3125 249.355469 68.605469 C 249.316406 67.898438 249.5625 67.179688 250.09375 66.621094 C 250.101562 66.613281 250.105469 66.609375 250.113281 66.601562 C 250.226562 66.457031 250.199219 66.25 250.046875 66.136719 C 249.898438 66.027344 249.691406 66.046875 249.574219 66.183594 C 248.921875 66.871094 248.625 67.753906 248.671875 68.625 C 248.71875 69.496094 249.109375 70.359375 249.832031 71.003906 C 249.839844 71.011719 249.847656 71.019531 249.859375 71.027344 C 250.585938 71.664062 251.511719 71.964844 252.417969 71.9375 C 253.328125 71.910156 254.222656 71.546875 254.882812 70.855469 " fill-opacity="1" fill-rule="evenodd"/></g></g></g></g><g clip-path="url(#6dd7a9e2b4)"><g clip-path="url(#74b3ad91d3)"><g clip-path="url(#7cd67dc659)"><g clip-path="url(#773ff04dad)"><path fill="#467cdd" d="M 263.207031 74.460938 C 263.285156 74.296875 263.210938 74.101562 263.035156 74.023438 C 262.863281 73.945312 262.660156 74.015625 262.582031 74.179688 C 262.109375 75.183594 261.253906 75.898438 260.25 76.246094 C 259.25 76.589844 258.105469 76.566406 257.054688 76.09375 C 256 75.617188 255.238281 74.78125 254.859375 73.8125 C 254.480469 72.84375 254.484375 71.746094 254.960938 70.742188 C 255.039062 70.578125 254.960938 70.382812 254.789062 70.304688 C 254.617188 70.226562 254.414062 70.296875 254.335938 70.460938 C 253.78125 71.628906 253.78125 72.910156 254.21875 74.035156 C 254.660156 75.164062 255.546875 76.136719 256.769531 76.6875 C 257.996094 77.242188 259.328125 77.265625 260.492188 76.863281 C 261.660156 76.460938 262.65625 75.628906 263.207031 74.460938 " fill-opacity="1" fill-rule="evenodd"/></g></g></g></g><g clip-path="url(#8f02ea9e57)"><g clip-path="url(#871515c1b6)"><g clip-path="url(#36c3603273)"><g clip-path="url(#83d39d118d)"><path fill="#467cdd" d="M 250.324219 61.191406 C 250.511719 61.210938 250.679688 61.082031 250.699219 60.902344 C 250.71875 60.71875 250.578125 60.554688 250.390625 60.535156 C 249.492188 60.4375 248.640625 60.695312 247.996094 61.199219 C 247.351562 61.699219 246.90625 62.4375 246.820312 63.300781 C 246.734375 64.164062 247.019531 64.984375 247.554688 65.617188 C 248.085938 66.246094 248.863281 66.683594 249.765625 66.785156 C 249.953125 66.804688 250.121094 66.675781 250.136719 66.496094 C 250.15625 66.3125 250.019531 66.152344 249.828125 66.128906 C 249.117188 66.050781 248.503906 65.703125 248.082031 65.207031 C 247.660156 64.707031 247.433594 64.058594 247.503906 63.375 C 247.570312 62.695312 247.921875 62.109375 248.433594 61.714844 C 248.941406 61.316406 249.613281 61.113281 250.324219 61.191406 " fill-opacity="1" fill-rule="evenodd"/></g></g></g></g><g clip-path="url(#b6231eb4c1)"><g clip-path="url(#7fb6ed41df)"><g clip-path="url(#438e39a35c)"><g clip-path="url(#ec9bb1a3e8)"><path fill="#467cdd" d="M 262.492188 52.847656 C 262.359375 52.714844 262.144531 52.707031 262.007812 52.828125 C 261.871094 52.953125 261.863281 53.160156 261.996094 53.292969 C 262.304688 53.609375 262.453125 54.011719 262.445312 54.410156 C 262.433594 54.804688 262.269531 55.199219 261.945312 55.488281 C 261.808594 55.613281 261.804688 55.820312 261.933594 55.953125 C 262.0625 56.085938 262.28125 56.09375 262.417969 55.972656 C 262.875 55.558594 263.113281 55 263.128906 54.4375 C 263.140625 53.871094 262.929688 53.296875 262.492188 52.847656 " fill-opacity="1" fill-rule="evenodd"/></g></g></g></g><g clip-path="url(#35ae725348)"><g clip-path="url(#4fd6443661)"><g clip-path="url(#dbf4a1a5a4)"><g clip-path="url(#07fb62b052)"><path fill="#467cdd" d="M 267.09375 59.773438 C 267.226562 59.644531 267.222656 59.4375 267.085938 59.308594 C 266.988281 59.21875 266.851562 59.191406 266.734375 59.226562 C 266.382812 59.308594 266.023438 59.25 265.726562 59.082031 C 265.425781 58.914062 265.191406 58.636719 265.089844 58.289062 L 265.089844 58.285156 C 265.042969 58.125 265.03125 57.964844 265.046875 57.808594 C 265.0625 57.648438 265.113281 57.492188 265.1875 57.351562 C 265.277344 57.191406 265.210938 56.992188 265.042969 56.90625 C 264.875 56.820312 264.667969 56.878906 264.578125 57.039062 C 264.464844 57.25 264.390625 57.484375 264.367188 57.730469 C 264.34375 57.960938 264.359375 58.195312 264.425781 58.429688 C 264.425781 58.445312 264.433594 58.460938 264.4375 58.476562 C 264.589844 58.988281 264.941406 59.398438 265.390625 59.648438 C 265.839844 59.898438 266.382812 59.992188 266.914062 59.863281 C 266.980469 59.851562 267.042969 59.824219 267.09375 59.773438 " fill-opacity="1" fill-rule="evenodd"/></g></g></g></g><g clip-path="url(#bb17d66410)"><g clip-path="url(#213be89fc5)"><g clip-path="url(#91c14d6802)"><g clip-path="url(#99870cc1ac)"><path fill="#467cdd" d="M 252.882812 60.769531 C 252.925781 60.949219 253.109375 61.0625 253.292969 61.023438 C 253.476562 60.984375 253.59375 60.808594 253.546875 60.628906 C 253.308594 59.65625 253.449219 58.605469 253.867188 57.695312 C 254.285156 56.789062 254.976562 56.027344 255.839844 55.625 C 256.011719 55.546875 256.078125 55.347656 255.992188 55.183594 C 255.910156 55.019531 255.703125 54.953125 255.535156 55.03125 C 254.519531 55.5 253.71875 56.378906 253.242188 57.417969 C 252.765625 58.449219 252.609375 59.652344 252.882812 60.769531 " fill-opacity="1" fill-rule="evenodd"/></g></g></g></g><g clip-path="url(#08377daa17)"><g clip-path="url(#f97af4f2ac)"><g clip-path="url(#5a6924b771)"><g clip-path="url(#12ebaaa07f)"><path fill="#467cdd" d="M 255.921875 62.675781 C 256.109375 62.660156 256.25 62.503906 256.230469 62.324219 C 256.214844 62.140625 256.046875 62.007812 255.859375 62.019531 C 255.367188 62.054688 254.859375 61.914062 254.433594 61.652344 C 254.011719 61.398438 253.679688 61.03125 253.53125 60.613281 C 253.472656 60.441406 253.277344 60.34375 253.097656 60.402344 C 252.917969 60.457031 252.824219 60.640625 252.882812 60.8125 C 253.082031 61.382812 253.523438 61.871094 254.074219 62.207031 C 254.617188 62.539062 255.277344 62.722656 255.921875 62.675781 " fill-opacity="1" fill-rule="evenodd"/></g></g></g></g><g clip-path="url(#177e074747)"><g clip-path="url(#28a4471076)"><g clip-path="url(#20efbc9faf)"><g clip-path="url(#7f3abf9277)"><path fill="#467cdd" d="M 251.960938 63.308594 C 251.804688 63.40625 251.757812 63.609375 251.863281 63.761719 C 251.964844 63.914062 252.179688 63.960938 252.335938 63.863281 C 252.878906 63.535156 253.28125 63.015625 253.5 62.4375 C 253.722656 61.859375 253.753906 61.21875 253.542969 60.652344 C 253.480469 60.480469 253.285156 60.390625 253.105469 60.449219 C 252.929688 60.507812 252.835938 60.695312 252.898438 60.867188 C 253.054688 61.28125 253.027344 61.761719 252.859375 62.203125 C 252.691406 62.652344 252.375 63.054688 251.960938 63.308594 " fill-opacity="1" fill-rule="evenodd"/></g></g></g></g><g clip-path="url(#dac47a0444)"><g clip-path="url(#9de0b48440)"><g clip-path="url(#209791b63f)"><g clip-path="url(#3b15407e22)"><path fill="#467cdd" d="M 256.757812 68.035156 C 256.882812 67.902344 256.867188 67.691406 256.726562 67.570312 C 256.585938 67.449219 256.367188 67.457031 256.242188 67.59375 C 256.058594 67.792969 255.917969 68.03125 255.828125 68.292969 C 255.746094 68.539062 255.710938 68.8125 255.738281 69.09375 C 255.792969 69.648438 256.074219 70.132812 256.488281 70.46875 C 256.898438 70.800781 257.441406 70.988281 258.015625 70.945312 C 258.207031 70.933594 258.34375 70.777344 258.328125 70.59375 C 258.308594 70.414062 258.144531 70.277344 257.953125 70.289062 C 257.566406 70.320312 257.203125 70.191406 256.925781 69.96875 C 256.648438 69.742188 256.457031 69.414062 256.417969 69.046875 C 256.402344 68.855469 256.425781 68.675781 256.480469 68.503906 C 256.539062 68.332031 256.632812 68.171875 256.757812 68.035156 " fill-opacity="1" fill-rule="evenodd"/></g></g></g></g><g clip-path="url(#41e026b5eb)"><g clip-path="url(#02e4890345)"><g clip-path="url(#80ab1028f6)"><g clip-path="url(#06b2fa7198)"><path fill="#467cdd" d="M 256.582031 68.074219 C 256.765625 68.039062 256.882812 67.863281 256.839844 67.6875 C 256.796875 67.507812 256.613281 67.394531 256.429688 67.433594 L 256.410156 67.4375 C 256.046875 67.507812 255.6875 67.425781 255.398438 67.238281 C 255.101562 67.046875 254.875 66.75 254.785156 66.382812 L 254.785156 66.371094 L 254.78125 66.363281 C 254.695312 65.988281 254.769531 65.613281 254.960938 65.316406 C 255.148438 65.023438 255.449219 64.800781 255.820312 64.726562 C 256.003906 64.6875 256.117188 64.511719 256.074219 64.335938 C 256.03125 64.15625 255.847656 64.042969 255.664062 64.082031 C 255.109375 64.199219 254.65625 64.527344 254.378906 64.964844 C 254.097656 65.398438 253.988281 65.945312 254.113281 66.492188 L 254.113281 66.496094 L 254.117188 66.503906 L 254.121094 66.523438 C 254.253906 67.058594 254.585938 67.5 255.023438 67.78125 C 255.464844 68.066406 256.007812 68.1875 256.554688 68.082031 L 256.558594 68.082031 L 256.582031 68.074219 " fill-opacity="1" fill-rule="evenodd"/></g></g></g></g><g clip-path="url(#e878b50ee3)"><g clip-path="url(#e64f003cb3)"><g clip-path="url(#dc46eed6d9)"><g clip-path="url(#62a9103314)"><path fill="#467cdd" d="M 264.597656 55.035156 Z M 260.667969 52.789062 C 260.492188 52.851562 260.40625 53.042969 260.472656 53.210938 C 260.542969 53.382812 260.738281 53.46875 260.914062 53.40625 C 261.648438 53.148438 262.425781 53.199219 263.09375 53.496094 C 263.757812 53.789062 264.3125 54.324219 264.597656 55.035156 L 264.601562 55.046875 L 264.609375 55.0625 C 264.878906 55.761719 264.835938 56.5 264.546875 57.128906 C 264.25 57.761719 263.703125 58.285156 262.972656 58.542969 L 262.957031 58.546875 C 262.785156 58.617188 262.703125 58.808594 262.777344 58.976562 C 262.855469 59.144531 263.054688 59.226562 263.230469 59.15625 C 264.132812 58.832031 264.808594 58.1875 265.171875 57.402344 C 265.53125 56.625 265.585938 55.710938 265.246094 54.839844 C 265.242188 54.824219 265.238281 54.8125 265.230469 54.796875 C 264.875 53.921875 264.191406 53.261719 263.367188 52.898438 C 262.542969 52.53125 261.578125 52.46875 260.667969 52.789062 " fill-opacity="1" fill-rule="evenodd"/></g></g></g></g><g clip-path="url(#a0f3f8d71f)"><g clip-path="url(#bf2772d0f0)"><g clip-path="url(#db7f6631c8)"><g clip-path="url(#bbaf49707e)"><path fill="#467cdd" d="M 260.101562 58.648438 C 260.289062 58.636719 260.429688 58.484375 260.414062 58.300781 C 260.402344 58.121094 260.234375 57.980469 260.046875 57.992188 C 259.417969 58.027344 258.824219 57.8125 258.378906 57.4375 C 257.933594 57.0625 257.632812 56.527344 257.585938 55.921875 C 257.570312 55.742188 257.40625 55.601562 257.21875 55.613281 C 257.03125 55.621094 256.890625 55.777344 256.902344 55.960938 C 256.964844 56.746094 257.355469 57.445312 257.933594 57.929688 C 258.511719 58.417969 259.28125 58.695312 260.101562 58.648438 " fill-opacity="1" fill-rule="evenodd"/></g></g></g></g><g clip-path="url(#4f720fd6ac)"><g clip-path="url(#d9efcadb5d)"><g clip-path="url(#afaca63e47)"><g clip-path="url(#7f8b14b5c3)"><path fill="#467cdd" d="M 261.164062 61.953125 C 261.34375 61.902344 261.449219 61.722656 261.394531 61.546875 C 261.339844 61.371094 261.148438 61.269531 260.96875 61.320312 L 260.945312 61.324219 C 260.59375 61.417969 260.226562 61.363281 259.921875 61.195312 C 259.617188 61.027344 259.367188 60.742188 259.253906 60.382812 L 259.25 60.367188 L 259.246094 60.363281 C 259.132812 59.992188 259.179688 59.613281 259.347656 59.304688 C 259.515625 59 259.800781 58.757812 260.164062 58.65625 C 260.34375 58.605469 260.445312 58.421875 260.386719 58.25 C 260.332031 58.074219 260.140625 57.972656 259.960938 58.023438 C 259.414062 58.175781 258.988281 58.535156 258.742188 58.992188 C 258.496094 59.445312 258.425781 59.996094 258.589844 60.535156 L 258.59375 60.539062 L 258.59375 60.546875 L 258.601562 60.5625 C 258.769531 61.09375 259.132812 61.511719 259.589844 61.761719 C 260.050781 62.015625 260.601562 62.101562 261.140625 61.957031 L 261.164062 61.953125 " fill-opacity="1" fill-rule="evenodd"/></g></g></g></g><g clip-path="url(#0ede002113)"><g clip-path="url(#664fd808ba)"><g clip-path="url(#4fc8113c66)"><g clip-path="url(#9f1394c2f7)"><path fill="#467cdd" d="M 255.703125 37.945312 C 255.820312 38.039062 255.992188 38.042969 256.113281 37.949219 C 256.25 37.839844 256.269531 37.644531 256.15625 37.511719 C 256.132812 37.484375 256.105469 37.460938 256.074219 37.441406 C 255.328125 36.925781 254.4375 36.742188 253.601562 36.863281 C 252.761719 36.988281 251.980469 37.414062 251.445312 38.117188 C 251.4375 38.128906 251.429688 38.136719 251.421875 38.148438 C 250.898438 38.859375 250.722656 39.710938 250.867188 40.515625 C 251.007812 41.324219 251.46875 42.085938 252.210938 42.609375 C 252.328125 42.703125 252.5 42.710938 252.621094 42.613281 C 252.757812 42.507812 252.777344 42.3125 252.664062 42.175781 C 252.644531 42.15625 252.625 42.136719 252.601562 42.121094 C 251.992188 41.695312 251.617188 41.078125 251.503906 40.425781 C 251.386719 39.769531 251.53125 39.078125 251.960938 38.503906 C 252.394531 37.925781 253.027344 37.578125 253.707031 37.480469 C 254.382812 37.378906 255.101562 37.527344 255.703125 37.945312 " fill-opacity="1" fill-rule="evenodd"/></g></g></g></g><g clip-path="url(#c768790b07)"><g clip-path="url(#c6e8af8065)"><g clip-path="url(#85a50134e2)"><g clip-path="url(#a2c4f23f6f)"><path fill="#467cdd" d="M 252.179688 42.644531 C 252.328125 42.746094 252.527344 42.714844 252.632812 42.578125 C 252.734375 42.441406 252.699219 42.246094 252.554688 42.144531 C 252.121094 41.839844 251.605469 41.734375 251.121094 41.804688 C 250.632812 41.875 250.179688 42.125 249.875 42.535156 C 249.566406 42.945312 249.464844 43.4375 249.546875 43.90625 C 249.628906 44.375 249.894531 44.816406 250.328125 45.117188 C 250.472656 45.222656 250.675781 45.191406 250.78125 45.054688 C 250.882812 44.914062 250.847656 44.71875 250.703125 44.617188 C 250.414062 44.417969 250.238281 44.125 250.183594 43.816406 C 250.128906 43.503906 250.195312 43.175781 250.402344 42.902344 C 250.605469 42.628906 250.90625 42.464844 251.226562 42.417969 C 251.550781 42.371094 251.894531 42.441406 252.179688 42.644531 " fill-opacity="1" fill-rule="evenodd"/></g></g></g></g><g clip-path="url(#fe33a49d0c)"><g clip-path="url(#e0e79ecda0)"><g clip-path="url(#485a46466c)"><g clip-path="url(#df7d78f8ca)"><path fill="#467cdd" d="M 246.902344 60.65625 C 247.078125 60.691406 247.191406 60.859375 247.160156 61.027344 C 247.125 61.195312 246.957031 61.300781 246.78125 61.265625 C 246.183594 61.140625 245.726562 60.675781 245.476562 60.023438 C 245.242188 59.421875 245.179688 58.648438 245.34375 57.847656 C 245.507812 57.046875 245.867188 56.359375 246.320312 55.898438 C 246.808594 55.398438 247.40625 55.148438 248.003906 55.273438 C 248.175781 55.308594 248.292969 55.472656 248.257812 55.640625 C 248.226562 55.808594 248.054688 55.914062 247.878906 55.878906 C 247.519531 55.804688 247.128906 55.980469 246.792969 56.328125 C 246.417969 56.710938 246.117188 57.292969 245.976562 57.976562 C 245.835938 58.664062 245.886719 59.316406 246.082031 59.816406 C 246.253906 60.269531 246.542969 60.582031 246.902344 60.65625 " fill-opacity="1" fill-rule="evenodd"/></g></g></g></g><g clip-path="url(#4420d7f663)"><g clip-path="url(#ec7523b2ff)"><g clip-path="url(#203bc174fd)"><g clip-path="url(#a82b7eae32)"><path fill="#467cdd" d="M 249.101562 49.886719 C 249.277344 49.921875 249.390625 50.085938 249.359375 50.253906 C 249.324219 50.421875 249.15625 50.53125 248.980469 50.492188 C 248.621094 50.417969 248.230469 50.597656 247.894531 50.941406 C 247.519531 51.324219 247.21875 51.90625 247.078125 52.589844 C 246.9375 53.277344 246.988281 53.929688 247.179688 54.433594 C 247.355469 54.882812 247.644531 55.199219 248.003906 55.273438 C 248.175781 55.308594 248.292969 55.472656 248.257812 55.640625 C 248.226562 55.808594 248.054688 55.914062 247.878906 55.878906 C 247.285156 55.757812 246.828125 55.292969 246.574219 54.636719 C 246.34375 54.035156 246.28125 53.261719 246.441406 52.460938 C 246.605469 51.660156 246.96875 50.972656 247.417969 50.511719 C 247.90625 50.011719 248.507812 49.761719 249.101562 49.886719 " fill-opacity="1" fill-rule="evenodd"/></g></g></g></g><g clip-path="url(#afe2db77f3)"><g clip-path="url(#8562107d44)"><g clip-path="url(#5bb647b5b9)"><g clip-path="url(#2fabb83519)"><path fill="#467cdd" d="M 259.835938 40.230469 C 259.933594 40.382812 260.144531 40.433594 260.304688 40.339844 C 260.464844 40.246094 260.511719 40.042969 260.414062 39.890625 C 259.800781 38.949219 259.640625 37.867188 259.875 36.875 C 260.109375 35.894531 260.730469 35.003906 261.683594 34.433594 C 261.699219 34.425781 261.714844 34.414062 261.726562 34.40625 C 262.691406 33.847656 263.804688 33.71875 264.832031 33.960938 C 265.859375 34.199219 266.796875 34.8125 267.40625 35.742188 C 267.492188 35.898438 267.691406 35.964844 267.855469 35.894531 C 268.027344 35.820312 268.101562 35.625 268.023438 35.457031 L 268.019531 35.457031 C 268.015625 35.445312 268.007812 35.433594 268 35.421875 C 267.289062 34.324219 266.1875 33.601562 264.984375 33.320312 C 263.78125 33.035156 262.472656 33.191406 261.34375 33.855469 L 261.339844 33.855469 C 260.210938 34.519531 259.480469 35.566406 259.207031 36.71875 C 258.933594 37.871094 259.121094 39.132812 259.835938 40.230469 " fill-opacity="1" fill-rule="evenodd"/></g></g></g></g><g clip-path="url(#85d647801e)"><g clip-path="url(#91c6e0e6a3)"><g clip-path="url(#504f684968)"><g clip-path="url(#a4d508bbf5)"><path fill="#467cdd" d="M 257.742188 48.738281 C 257.925781 48.789062 258.113281 48.6875 258.164062 48.515625 C 258.214844 48.339844 258.105469 48.15625 257.921875 48.105469 C 256.816406 47.796875 255.9375 47.089844 255.410156 46.199219 C 254.882812 45.304688 254.707031 44.226562 255.003906 43.171875 C 255.304688 42.113281 256.023438 41.28125 256.941406 40.789062 C 257.863281 40.300781 258.984375 40.152344 260.085938 40.457031 C 260.269531 40.507812 260.457031 40.410156 260.507812 40.234375 C 260.558594 40.058594 260.449219 39.875 260.269531 39.824219 C 258.980469 39.46875 257.671875 39.644531 256.601562 40.214844 C 255.53125 40.785156 254.691406 41.753906 254.34375 42.984375 C 253.996094 44.214844 254.203125 45.476562 254.816406 46.515625 C 255.433594 47.558594 256.457031 48.378906 257.742188 48.738281 " fill-opacity="1" fill-rule="evenodd"/></g></g></g></g><g clip-path="url(#f467fe60e9)"><g clip-path="url(#354e94ccb5)"><g clip-path="url(#33a8a7aa00)"><g clip-path="url(#919bdea3bf)"><path fill="#467cdd" d="M 270.515625 40.175781 C 270.351562 40.265625 270.296875 40.464844 270.390625 40.625 C 270.484375 40.785156 270.695312 40.839844 270.859375 40.753906 C 271.640625 40.332031 272.167969 39.644531 272.382812 38.871094 C 272.597656 38.097656 272.507812 37.238281 272.054688 36.480469 C 271.601562 35.71875 270.875 35.203125 270.066406 34.980469 C 269.257812 34.757812 268.367188 34.832031 267.585938 35.25 C 267.421875 35.339844 267.363281 35.539062 267.460938 35.699219 C 267.554688 35.855469 267.761719 35.914062 267.925781 35.828125 C 268.546875 35.496094 269.25 35.4375 269.890625 35.613281 C 270.53125 35.789062 271.105469 36.199219 271.460938 36.796875 C 271.820312 37.398438 271.890625 38.078125 271.71875 38.6875 C 271.546875 39.300781 271.132812 39.84375 270.515625 40.175781 " fill-opacity="1" fill-rule="evenodd"/></g></g></g></g><g clip-path="url(#b1bdf0e019)"><g clip-path="url(#689e860259)"><g clip-path="url(#541518d359)"><g clip-path="url(#9a7df5fa94)"><path fill="#467cdd" d="M 270.289062 34.027344 C 270.199219 34.183594 270.265625 34.386719 270.429688 34.472656 C 270.597656 34.558594 270.804688 34.5 270.894531 34.34375 C 271.128906 33.914062 271.109375 33.410156 270.886719 32.941406 C 270.675781 32.5 270.28125 32.09375 269.753906 31.816406 C 269.226562 31.542969 268.65625 31.449219 268.164062 31.523438 C 267.640625 31.597656 267.199219 31.863281 266.960938 32.289062 C 266.875 32.449219 266.9375 32.648438 267.105469 32.738281 C 267.273438 32.824219 267.480469 32.765625 267.566406 32.605469 C 267.699219 32.367188 267.960938 32.21875 268.28125 32.171875 C 268.632812 32.121094 269.042969 32.191406 269.433594 32.394531 C 269.828125 32.597656 270.113281 32.894531 270.265625 33.207031 C 270.402344 33.492188 270.417969 33.785156 270.289062 34.027344 " fill-opacity="1" fill-rule="evenodd"/></g></g></g></g><g clip-path="url(#80b44fa1e0)"><g clip-path="url(#17b04a4abc)"><g clip-path="url(#19587efd26)"><g clip-path="url(#656d67a96f)"><path fill="#467cdd" d="M 272.519531 33.25 C 272.609375 33.414062 272.816406 33.476562 272.984375 33.394531 C 273.152344 33.3125 273.214844 33.113281 273.125 32.949219 C 272.882812 32.515625 272.441406 32.242188 271.914062 32.148438 C 271.421875 32.0625 270.851562 32.140625 270.328125 32.402344 C 270.160156 32.484375 270.097656 32.679688 270.1875 32.84375 C 270.277344 33.003906 270.484375 33.070312 270.652344 32.984375 C 271.039062 32.792969 271.453125 32.734375 271.800781 32.796875 C 272.121094 32.851562 272.386719 33.007812 272.519531 33.25 " fill-opacity="1" fill-rule="evenodd"/></g></g></g></g><g clip-path="url(#2960a82859)"><g clip-path="url(#b8cdafd77b)"><g clip-path="url(#359a763158)"><g clip-path="url(#13e93c0b25)"><path fill="#467cdd" d="M 265.195312 48.945312 C 265.066406 48.8125 264.851562 48.800781 264.714844 48.921875 C 264.574219 49.042969 264.566406 49.25 264.695312 49.386719 C 264.855469 49.550781 265.027344 49.699219 265.203125 49.820312 C 265.863281 50.273438 266.636719 50.4375 267.425781 50.328125 C 268.191406 50.222656 268.96875 49.859375 269.660156 49.257812 C 269.957031 48.996094 270.238281 48.691406 270.492188 48.34375 C 271.285156 47.273438 271.699219 45.988281 271.730469 44.777344 C 271.765625 43.542969 271.402344 42.375 270.636719 41.570312 C 270.507812 41.433594 270.292969 41.421875 270.152344 41.542969 C 270.015625 41.664062 270.007812 41.875 270.136719 42.007812 C 270.773438 42.679688 271.078125 43.675781 271.046875 44.746094 C 271.015625 45.835938 270.644531 46.992188 269.929688 47.957031 C 269.703125 48.269531 269.453125 48.539062 269.191406 48.765625 C 268.605469 49.285156 267.949219 49.59375 267.316406 49.679688 C 266.703125 49.761719 266.101562 49.636719 265.59375 49.289062 C 265.457031 49.191406 265.320312 49.078125 265.195312 48.945312 " fill-opacity="1" fill-rule="evenodd"/></g></g></g></g><g clip-path="url(#122d8194b6)"><g clip-path="url(#3a98222453)"><g clip-path="url(#6d3422a60a)"><g clip-path="url(#88b5b63ce3)"><path fill="#467cdd" d="M 266.339844 50.300781 C 266.523438 50.332031 266.699219 50.214844 266.730469 50.035156 C 266.757812 49.855469 266.628906 49.683594 266.441406 49.652344 C 265.867188 49.558594 265.28125 49.761719 264.800781 50.164062 C 264.34375 50.546875 263.972656 51.117188 263.800781 51.78125 C 263.753906 51.957031 263.867188 52.136719 264.050781 52.183594 C 264.234375 52.230469 264.421875 52.125 264.464844 51.949219 C 264.605469 51.417969 264.894531 50.964844 265.253906 50.664062 C 265.585938 50.386719 265.976562 50.242188 266.339844 50.300781 " fill-opacity="1" fill-rule="evenodd"/></g></g></g></g><g clip-path="url(#4344cf9660)"><g clip-path="url(#ea9b6f31be)"><g clip-path="url(#450a2021c7)"><g clip-path="url(#9e39485c9e)"><path fill="#467cdd" d="M 265.121094 45.003906 C 264.953125 45.078125 264.878906 45.269531 264.957031 45.4375 C 265.039062 45.605469 265.242188 45.679688 265.414062 45.605469 L 265.414062 45.601562 C 265.425781 45.597656 265.433594 45.59375 265.445312 45.589844 C 266.304688 45.1875 266.910156 44.484375 267.195312 43.675781 C 267.480469 42.859375 267.445312 41.929688 267.011719 41.085938 L 267.015625 41.085938 C 267.007812 41.078125 267.003906 41.066406 267 41.058594 C 266.5625 40.226562 265.820312 39.628906 264.972656 39.339844 C 264.117188 39.046875 263.148438 39.070312 262.277344 39.46875 C 262.109375 39.546875 262.039062 39.742188 262.125 39.90625 C 262.207031 40.070312 262.414062 40.144531 262.582031 40.066406 C 263.285156 39.742188 264.066406 39.722656 264.753906 39.957031 C 265.4375 40.191406 266.035156 40.671875 266.386719 41.34375 L 266.394531 41.355469 L 266.398438 41.363281 C 266.746094 42.046875 266.777344 42.792969 266.546875 43.453125 C 266.316406 44.105469 265.828125 44.671875 265.136719 44.996094 L 265.125 45 L 265.121094 45.003906 " fill-opacity="1" fill-rule="evenodd"/></g></g></g></g><g clip-path="url(#8485688318)"><g clip-path="url(#ece95e90ff)"><g clip-path="url(#1f9c8c6a06)"><g clip-path="url(#092fb38ec6)"><path fill="#467cdd" d="M 266.6875 44.601562 C 266.796875 44.457031 266.757812 44.25 266.601562 44.144531 C 266.445312 44.035156 266.234375 44.070312 266.125 44.21875 C 265.828125 44.621094 265.734375 45.101562 265.816406 45.554688 C 265.902344 46.007812 266.164062 46.4375 266.589844 46.730469 C 266.742188 46.835938 266.957031 46.804688 267.066406 46.65625 C 267.171875 46.507812 267.136719 46.300781 266.980469 46.195312 C 266.710938 46.011719 266.546875 45.742188 266.492188 45.453125 C 266.4375 45.164062 266.5 44.859375 266.6875 44.601562 " fill-opacity="1" fill-rule="evenodd"/></g></g></g></g><g clip-path="url(#37cf9b7576)"><g clip-path="url(#cf0d276a18)"><g clip-path="url(#6f8c3d8a6c)"><g clip-path="url(#cdedcb56c6)"><path fill="#467cdd" d="M 263.066406 46.929688 C 263.144531 46.765625 263.070312 46.566406 262.898438 46.488281 C 262.730469 46.410156 262.527344 46.476562 262.445312 46.640625 C 262.144531 47.257812 261.601562 47.757812 260.964844 48.070312 C 260.335938 48.382812 259.621094 48.503906 258.972656 48.363281 C 258.789062 48.324219 258.605469 48.433594 258.566406 48.613281 C 258.53125 48.789062 258.648438 48.964844 258.832031 49.007812 C 259.644531 49.179688 260.519531 49.035156 261.285156 48.65625 C 262.046875 48.28125 262.699219 47.675781 263.066406 46.929688 " fill-opacity="1" fill-rule="evenodd"/></g></g></g></g><g clip-path="url(#7e40a0fdcd)"><g clip-path="url(#8dfd60eae5)"><g clip-path="url(#c03cc31718)"><g clip-path="url(#e9512c9814)"><path fill="#467cdd" d="M 268.683594 57.992188 C 268.507812 57.957031 268.335938 58.058594 268.300781 58.226562 C 268.265625 58.394531 268.378906 58.5625 268.550781 58.597656 C 269.058594 58.710938 269.570312 58.507812 269.988281 58.089844 C 270.367188 57.710938 270.675781 57.144531 270.820312 56.480469 C 270.960938 55.820312 270.917969 55.179688 270.730469 54.675781 C 270.523438 54.121094 270.144531 53.726562 269.636719 53.613281 C 269.460938 53.578125 269.292969 53.679688 269.253906 53.847656 C 269.21875 54.015625 269.332031 54.183594 269.507812 54.21875 C 269.777344 54.277344 269.992188 54.523438 270.121094 54.875 C 270.273438 55.277344 270.304688 55.796875 270.1875 56.34375 C 270.066406 56.890625 269.820312 57.351562 269.519531 57.65625 C 269.253906 57.917969 268.953125 58.050781 268.683594 57.992188 " fill-opacity="1" fill-rule="evenodd"/></g></g></g></g><g clip-path="url(#80d2528033)"><g clip-path="url(#ed18efe9df)"><g clip-path="url(#06c8e9aaee)"><g clip-path="url(#095d4294f2)"><path fill="#467cdd" d="M 270.589844 49.234375 C 270.414062 49.199219 270.246094 49.300781 270.207031 49.46875 C 270.171875 49.636719 270.285156 49.804688 270.460938 49.839844 C 270.730469 49.902344 270.945312 50.148438 271.074219 50.496094 C 271.226562 50.898438 271.257812 51.417969 271.140625 51.964844 L 271.140625 51.96875 C 271.019531 52.515625 270.773438 52.972656 270.472656 53.277344 C 270.207031 53.539062 269.90625 53.671875 269.636719 53.613281 C 269.460938 53.578125 269.292969 53.679688 269.253906 53.847656 C 269.21875 54.015625 269.332031 54.183594 269.507812 54.21875 C 270.011719 54.332031 270.523438 54.128906 270.941406 53.710938 C 271.316406 53.335938 271.621094 52.777344 271.765625 52.128906 C 271.773438 52.113281 271.773438 52.097656 271.777344 52.082031 C 271.914062 51.425781 271.871094 50.792969 271.683594 50.296875 C 271.480469 49.746094 271.097656 49.347656 270.589844 49.234375 " fill-opacity="1" fill-rule="evenodd"/></g></g></g></g><g clip-path="url(#49c0eaa775)"><g clip-path="url(#8d1d7ca97f)"><g clip-path="url(#f173498220)"><g clip-path="url(#3ed855b13a)"><path fill="#467cdd" d="M 253.363281 47.496094 C 253.484375 47.621094 253.691406 47.628906 253.820312 47.511719 C 253.949219 47.394531 253.953125 47.195312 253.828125 47.070312 C 253.589844 46.828125 253.25 46.726562 252.894531 46.757812 C 252.570312 46.789062 252.230469 46.933594 251.953125 47.183594 C 251.824219 47.300781 251.820312 47.496094 251.945312 47.625 C 252.066406 47.75 252.273438 47.757812 252.402344 47.640625 C 252.574219 47.484375 252.777344 47.394531 252.964844 47.375 C 253.125 47.363281 253.269531 47.398438 253.363281 47.496094 " fill-opacity="1" fill-rule="evenodd"/></g></g></g></g><g clip-path="url(#8c1c509a77)"><g clip-path="url(#0c8f9d9fdb)"><g clip-path="url(#485140275f)"><g clip-path="url(#e143e28516)"><path fill="#467cdd" d="M 249.695312 47.421875 C 249.570312 47.539062 249.363281 47.535156 249.238281 47.414062 C 249.113281 47.289062 249.109375 47.09375 249.238281 46.976562 C 249.425781 46.796875 249.648438 46.65625 249.902344 46.566406 C 250.140625 46.476562 250.40625 46.433594 250.683594 46.445312 C 251.226562 46.46875 251.71875 46.699219 252.066406 47.058594 C 252.414062 47.414062 252.621094 47.898438 252.609375 48.421875 C 252.605469 48.59375 252.457031 48.726562 252.277344 48.71875 C 252.101562 48.710938 251.957031 48.566406 251.964844 48.394531 C 251.972656 48.042969 251.832031 47.71875 251.597656 47.476562 C 251.363281 47.238281 251.035156 47.078125 250.667969 47.0625 C 250.484375 47.058594 250.304688 47.085938 250.140625 47.144531 C 249.972656 47.207031 249.820312 47.300781 249.695312 47.421875 " fill-opacity="1" fill-rule="evenodd"/></g></g></g></g><g clip-path="url(#474ab6ad33)"><g clip-path="url(#1cb9811b3f)"><g clip-path="url(#13ed9bbb91)"><g clip-path="url(#c850153bf6)"><path fill="#467cdd" d="M 258.5625 42.878906 C 258.597656 42.710938 258.480469 42.546875 258.304688 42.511719 C 258.128906 42.480469 257.960938 42.589844 257.925781 42.757812 C 257.800781 43.421875 258.046875 44.085938 258.546875 44.621094 C 259.027344 45.136719 259.746094 45.539062 260.585938 45.699219 C 260.761719 45.734375 260.929688 45.625 260.960938 45.457031 C 260.992188 45.289062 260.878906 45.125 260.703125 45.089844 C 260.003906 44.957031 259.414062 44.632812 259.027344 44.214844 C 258.660156 43.820312 258.476562 43.34375 258.5625 42.878906 " fill-opacity="1" fill-rule="evenodd"/></g></g></g></g><g clip-path="url(#b254d28842)"><g clip-path="url(#d494c1247a)"><g clip-path="url(#d3fb72f600)"><g clip-path="url(#f7a9c3baf2)"><path fill="#467cdd" d="M 265.777344 67.140625 C 265.613281 67.230469 265.558594 67.429688 265.652344 67.589844 C 265.746094 67.75 265.957031 67.804688 266.121094 67.71875 C 266.902344 67.296875 267.425781 66.609375 267.644531 65.835938 C 267.859375 65.0625 267.769531 64.207031 267.316406 63.445312 C 266.863281 62.683594 266.136719 62.167969 265.328125 61.945312 C 264.519531 61.722656 263.628906 61.792969 262.847656 62.214844 C 262.683594 62.304688 262.625 62.503906 262.722656 62.664062 C 262.816406 62.820312 263.023438 62.878906 263.1875 62.792969 C 263.808594 62.460938 264.511719 62.402344 265.152344 62.578125 C 265.792969 62.753906 266.367188 63.164062 266.722656 63.761719 C 267.078125 64.363281 267.152344 65.042969 266.980469 65.652344 C 266.808594 66.265625 266.394531 66.808594 265.777344 67.140625 " fill-opacity="1" fill-rule="evenodd"/></g></g></g></g><g clip-path="url(#a0b4753224)"><g clip-path="url(#bd14b307e3)"><g clip-path="url(#ff6edc0db5)"><g clip-path="url(#81121bd6fd)"><path fill="#467cdd" d="M 268.097656 62.253906 C 267.929688 62.328125 267.84375 62.535156 267.90625 62.714844 C 267.964844 62.890625 268.148438 62.972656 268.316406 62.898438 C 268.765625 62.691406 269.085938 62.265625 269.234375 61.734375 C 269.378906 61.238281 269.371094 60.652344 269.183594 60.089844 C 269.121094 59.910156 268.9375 59.828125 268.769531 59.90625 C 268.601562 59.980469 268.515625 60.1875 268.578125 60.367188 C 268.71875 60.78125 268.726562 61.207031 268.625 61.5625 C 268.53125 61.882812 268.347656 62.136719 268.097656 62.253906 " fill-opacity="1" fill-rule="evenodd"/></g></g></g></g><g clip-path="url(#a6a2f3c54f)"><g clip-path="url(#ee53b424ba)"><g clip-path="url(#c42c2f833d)"><g clip-path="url(#8efc1cd240)"><path fill="#467cdd" d="M 261.539062 79.605469 C 261.363281 79.546875 261.164062 79.632812 261.089844 79.804688 C 261.019531 79.976562 261.101562 80.164062 261.277344 80.226562 C 261.492188 80.304688 261.707031 80.355469 261.921875 80.382812 C 262.710938 80.484375 263.480469 80.277344 264.144531 79.820312 C 264.789062 79.375 265.335938 78.695312 265.695312 77.84375 C 265.847656 77.476562 265.96875 77.074219 266.050781 76.648438 C 266.300781 75.332031 266.117188 74 265.625 72.90625 C 265.121094 71.792969 264.289062 70.921875 263.25 70.554688 C 263.074219 70.492188 262.875 70.582031 262.800781 70.753906 C 262.730469 70.925781 262.8125 71.113281 262.988281 71.175781 C 263.855469 71.480469 264.558594 72.226562 264.992188 73.191406 C 265.4375 74.175781 265.601562 75.378906 265.375 76.5625 C 265.304688 76.945312 265.199219 77.296875 265.0625 77.621094 C 264.753906 78.347656 264.300781 78.921875 263.765625 79.289062 C 263.25 79.644531 262.65625 79.808594 262.042969 79.730469 C 261.875 79.707031 261.707031 79.667969 261.539062 79.605469 " fill-opacity="1" fill-rule="evenodd"/></g></g></g></g><g clip-path="url(#841b485c94)"><g clip-path="url(#97b84d0b7a)"><g clip-path="url(#a019aa3f20)"><g clip-path="url(#2be36d4a19)"><path fill="#467cdd" d="M 260.785156 70.382812 C 260.613281 70.457031 260.539062 70.652344 260.621094 70.820312 C 260.703125 70.984375 260.90625 71.058594 261.078125 70.984375 C 261.085938 70.980469 261.097656 70.976562 261.105469 70.96875 C 261.964844 70.566406 262.570312 69.867188 262.855469 69.054688 C 263.144531 68.238281 263.105469 67.3125 262.675781 66.46875 C 262.671875 66.457031 262.664062 66.449219 262.660156 66.441406 C 262.222656 65.605469 261.484375 65.011719 260.636719 64.722656 C 259.777344 64.429688 258.8125 64.449219 257.941406 64.851562 C 257.769531 64.929688 257.699219 65.125 257.785156 65.289062 C 257.867188 65.453125 258.074219 65.523438 258.242188 65.445312 C 258.949219 65.121094 259.726562 65.105469 260.417969 65.339844 C 261.101562 65.574219 261.699219 66.050781 262.050781 66.726562 L 262.054688 66.738281 L 262.058594 66.742188 C 262.410156 67.425781 262.441406 68.175781 262.210938 68.832031 C 261.980469 69.488281 261.492188 70.050781 260.796875 70.378906 L 260.785156 70.382812 " fill-opacity="1" fill-rule="evenodd"/></g></g></g></g><g clip-path="url(#efaf94c61f)"><g clip-path="url(#44d764939f)"><g clip-path="url(#b314fdaf9e)"><g clip-path="url(#ae30933660)"><path fill="#467cdd" d="M 261.949219 71.570312 C 262.058594 71.421875 262.019531 71.214844 261.863281 71.109375 C 261.707031 71.003906 261.496094 71.035156 261.386719 71.183594 C 261.089844 71.582031 260.996094 72.066406 261.078125 72.519531 C 261.164062 72.976562 261.425781 73.402344 261.851562 73.695312 C 262.003906 73.800781 262.21875 73.769531 262.328125 73.621094 C 262.433594 73.472656 262.394531 73.265625 262.242188 73.160156 C 261.972656 72.976562 261.804688 72.707031 261.753906 72.417969 C 261.699219 72.128906 261.761719 71.824219 261.949219 71.570312 " fill-opacity="1" fill-rule="evenodd"/></g></g></g></g><g clip-path="url(#fbff575d73)"><g clip-path="url(#6f412d341e)"><g clip-path="url(#5761c3390e)"><g clip-path="url(#ee156a90f6)"><path fill="#467cdd" d="M 265.191406 69.253906 C 265.027344 69.191406 264.84375 69.289062 264.785156 69.476562 C 264.730469 69.660156 264.816406 69.859375 264.984375 69.921875 C 265.4375 70.097656 265.914062 70.050781 266.316406 69.835938 C 266.71875 69.617188 267.046875 69.230469 267.203125 68.726562 C 267.261719 68.542969 267.171875 68.34375 267.007812 68.28125 C 266.839844 68.214844 266.65625 68.316406 266.601562 68.5 C 266.5 68.816406 266.292969 69.0625 266.039062 69.199219 C 265.785156 69.335938 265.480469 69.363281 265.191406 69.253906 " fill-opacity="1" fill-rule="evenodd"/></g></g></g></g><g clip-path="url(#ed7709ece8)"><g clip-path="url(#d2c5cec74b)"><g clip-path="url(#cac5bb2939)"><g clip-path="url(#a5b30e8ab9)"><g clip-path="url(#4ef4177893)"><path fill="#fec104" d="M 308.378906 26.449219 L 307.058594 33.78125 L 326.066406 19.015625 L 310.058594 27.839844 L 312.726562 19.9375 L 295.386719 34.179688 L 308.378906 26.449219 " fill-opacity="1" fill-rule="evenodd"/></g></g></g></g></g><g clip-path="url(#1c9140b0eb)"><g clip-path="url(#bb7bdd9caf)"><g clip-path="url(#20f754a8b5)"><g clip-path="url(#4c220e174c)"><path fill="#fec104" d="M 298.222656 23.640625 L 299.34375 28.042969 L 306.160156 15.027344 L 299.507812 23.984375 L 298.988281 18.921875 L 292.96875 31.222656 L 298.222656 23.640625 " fill-opacity="1" fill-rule="evenodd"/></g></g></g></g><g clip-path="url(#01a09202f0)"><g clip-path="url(#ec315ec11d)"><g clip-path="url(#59e7239771)"><g clip-path="url(#cdc8bb929b)"><path fill="#fec104" d="M 303.546875 37.242188 L 302.140625 39.871094 L 311.195312 36.605469 L 304.015625 37.980469 L 306.007812 35.300781 L 297.652344 38.578125 L 303.546875 37.242188 " fill-opacity="1" fill-rule="evenodd"/></g></g></g></g><g clip-path="url(#bc25a1be6b)"><g clip-path="url(#45594cca7d)"><g clip-path="url(#58b8ff6fff)"><g clip-path="url(#572ab6aa55)"><path fill="#fec104" d="M 252.914062 14.199219 L 251.019531 21.40625 L 240 0.0117188 L 250.804688 14.75 L 251.710938 6.460938 L 261.4375 26.683594 L 252.914062 14.199219 " fill-opacity="1" fill-rule="evenodd"/></g></g></g></g><g clip-path="url(#1b4d445d16)"><g clip-path="url(#94e149e6e0)"><g clip-path="url(#0ea9b4a3db)"><g clip-path="url(#24f11238e0)"><path fill="#fec104" d="M 263.308594 15.929688 L 260.4375 19.449219 L 259.734375 4.773438 L 261.996094 15.699219 L 264.597656 11.328125 L 264.878906 25.019531 L 263.308594 15.929688 " fill-opacity="1" fill-rule="evenodd"/></g></g></g></g><g clip-path="url(#57bd50c7df)"><g clip-path="url(#8efc24fd34)"><g clip-path="url(#2aa284e359)"><g clip-path="url(#acd8cc3126)"><path fill="#fec104" d="M 252.746094 26.023438 L 252.914062 29 L 246.082031 22.222656 L 252.011719 26.496094 L 251.335938 23.230469 L 257.53125 29.71875 L 252.746094 26.023438 " fill-opacity="1" fill-rule="evenodd"/></g></g></g></g></svg>